<svg width="244" height="139" viewBox="0 0 244 139" fill="none" xmlns="http://www.w3.org/2000/svg">
<path d="M1.846 84.683C1.846 85.489 1.99767 86.2473 2.301 86.958C2.60433 87.6687 3.068 88.245 3.692 88.687C4.316 89.1203 5.10033 89.337 6.045 89.337C6.80767 89.337 7.436 89.2113 7.93 88.96C8.43267 88.7087 8.827 88.4097 9.113 88.063C9.40767 87.7163 9.61567 87.413 9.737 87.153L10.556 87.829C10.2267 88.3663 9.84967 88.8213 9.425 89.194C9.00033 89.5667 8.51067 89.844 7.956 90.026C7.40133 90.2167 6.74267 90.312 5.98 90.312C4.862 90.312 3.90867 90.052 3.12 89.532C2.34 89.012 1.74633 88.3143 1.339 87.439C0.940333 86.5637 0.741 85.593 0.741 84.527C0.741 83.487 0.940333 82.551 1.339 81.719C1.74633 80.887 2.33567 80.2283 3.107 79.743C3.887 79.2577 4.82733 79.015 5.928 79.015C6.89867 79.015 7.748 79.2403 8.476 79.691C9.204 80.133 9.76733 80.744 10.166 81.524C10.5733 82.2953 10.777 83.1837 10.777 84.189C10.777 84.267 10.7727 84.3537 10.764 84.449C10.7553 84.5357 10.751 84.6137 10.751 84.683H1.846ZM9.633 83.695C9.61567 83.175 9.49 82.629 9.256 82.057C9.03067 81.4763 8.64933 80.9867 8.112 80.588C7.58333 80.1893 6.85533 79.99 5.928 79.99C4.94867 79.99 4.173 80.185 3.601 80.575C3.03767 80.9563 2.626 81.4373 2.366 82.018C2.11467 82.59 1.963 83.149 1.911 83.695H9.633ZM18.6132 79.015C19.2718 79.015 19.9175 79.158 20.5502 79.444C21.1828 79.73 21.7028 80.185 22.1102 80.809C22.5175 81.433 22.7212 82.2433 22.7212 83.24V90H21.6032V83.539C21.6032 82.2737 21.3085 81.3723 20.7192 80.835C20.1298 80.289 19.3845 80.016 18.4832 80.016C17.8765 80.016 17.2915 80.1937 16.7282 80.549C16.1735 80.8957 15.7142 81.3723 15.3502 81.979C14.9862 82.577 14.8042 83.2487 14.8042 83.994V90H13.7122V79.327H14.8042V81.459C14.8562 81.147 15.0598 80.8003 15.4152 80.419C15.7705 80.0377 16.2255 79.7083 16.7802 79.431C17.3435 79.1537 17.9545 79.015 18.6132 79.015ZM27.4115 90H26.3455V79.327H27.4115V81.303H27.3465C27.3812 81.069 27.5372 80.7743 27.8145 80.419C28.0918 80.055 28.4732 79.73 28.9585 79.444C29.4525 79.158 30.0245 79.015 30.6745 79.015C31.1772 79.015 31.6018 79.08 31.9485 79.21C32.3038 79.3313 32.5465 79.4527 32.6765 79.574L32.1825 80.523C32.0612 80.419 31.8445 80.315 31.5325 80.211C31.2292 80.0983 30.8608 80.042 30.4275 80.042C29.8295 80.042 29.3008 80.2543 28.8415 80.679C28.3908 81.095 28.0398 81.5933 27.7885 82.174C27.5372 82.7547 27.4115 83.2833 27.4115 83.76V90ZM34.7275 90V79.327H35.8195V90H34.7275ZM35.2995 74.66C35.0308 74.66 34.8011 74.569 34.6105 74.387C34.4285 74.1963 34.3375 73.9667 34.3375 73.698C34.3375 73.4293 34.4328 73.204 34.6235 73.022C34.8141 72.8313 35.0395 72.736 35.2995 72.736C35.4728 72.736 35.6331 72.7793 35.7805 72.866C35.9365 72.9527 36.0578 73.0697 36.1445 73.217C36.2398 73.3557 36.2875 73.516 36.2875 73.698C36.2875 73.9667 36.1878 74.1963 35.9885 74.387C35.7978 74.569 35.5681 74.66 35.2995 74.66ZM44.3093 89.285C45.1066 89.285 45.7436 89.1637 46.2203 88.921C46.7056 88.6697 47.0003 88.5007 47.1043 88.414L47.7283 89.298C47.6676 89.35 47.4769 89.4583 47.1563 89.623C46.8443 89.7877 46.4326 89.9437 45.9213 90.091C45.4186 90.2383 44.8466 90.312 44.2053 90.312C43.4079 90.312 42.6193 90.104 41.8393 89.688C41.0593 89.272 40.4093 88.6437 39.8893 87.803C39.3779 86.9623 39.1223 85.9137 39.1223 84.657C39.1223 83.3917 39.3779 82.343 39.8893 81.511C40.4093 80.679 41.0593 80.055 41.8393 79.639C42.6193 79.223 43.4079 79.015 44.2053 79.015C44.8466 79.015 45.4099 79.0973 45.8953 79.262C46.3806 79.418 46.7749 79.5913 47.0783 79.782C47.3816 79.9727 47.5679 80.107 47.6373 80.185L47.0393 81.082C46.9613 81.004 46.8096 80.8827 46.5843 80.718C46.3589 80.5447 46.0556 80.3887 45.6743 80.25C45.3016 80.1113 44.8466 80.042 44.3093 80.042C43.6593 80.042 43.0179 80.2197 42.3853 80.575C41.7526 80.9303 41.2283 81.4503 40.8123 82.135C40.4049 82.8197 40.2013 83.6603 40.2013 84.657C40.2013 85.6537 40.4049 86.4987 40.8123 87.192C41.2283 87.8767 41.7526 88.3967 42.3853 88.752C43.0179 89.1073 43.6593 89.285 44.3093 89.285ZM55.4692 79.015C56.1278 79.015 56.7735 79.158 57.4062 79.444C58.0388 79.73 58.5588 80.185 58.9662 80.809C59.3735 81.433 59.5772 82.2433 59.5772 83.24V90H58.4592V83.539C58.4592 82.2737 58.1645 81.3723 57.5752 80.835C56.9945 80.289 56.2492 80.016 55.3392 80.016C54.7412 80.016 54.1605 80.1937 53.5972 80.549C53.0338 80.8957 52.5702 81.3723 52.2062 81.979C51.8422 82.577 51.6602 83.2487 51.6602 83.994V90H50.5292V72.112H51.6602V81.459C51.7122 81.147 51.9115 80.8003 52.2582 80.419C52.6135 80.0377 53.0685 79.7083 53.6232 79.431C54.1865 79.1537 54.8018 79.015 55.4692 79.015ZM63.4697 90V79.327H64.5617V90H63.4697ZM64.0417 74.66C63.773 74.66 63.5433 74.569 63.3527 74.387C63.1707 74.1963 63.0797 73.9667 63.0797 73.698C63.0797 73.4293 63.175 73.204 63.3657 73.022C63.5563 72.8313 63.7817 72.736 64.0417 72.736C64.215 72.736 64.3753 72.7793 64.5227 72.866C64.6787 72.9527 64.8 73.0697 64.8867 73.217C64.982 73.3557 65.0297 73.516 65.0297 73.698C65.0297 73.9667 64.93 74.1963 64.7307 74.387C64.54 74.569 64.3103 74.66 64.0417 74.66ZM73.5585 79.015C74.2171 79.015 74.8628 79.158 75.4955 79.444C76.1281 79.73 76.6481 80.185 77.0555 80.809C77.4628 81.433 77.6665 82.2433 77.6665 83.24V90H76.5485V83.539C76.5485 82.2737 76.2538 81.3723 75.6645 80.835C75.0751 80.289 74.3298 80.016 73.4285 80.016C72.8218 80.016 72.2368 80.1937 71.6735 80.549C71.1188 80.8957 70.6595 81.3723 70.2955 81.979C69.9315 82.577 69.7495 83.2487 69.7495 83.994V90H68.6575V79.327H69.7495V81.459C69.8015 81.147 70.0051 80.8003 70.3605 80.419C70.7158 80.0377 71.1708 79.7083 71.7255 79.431C72.2888 79.1537 72.8998 79.015 73.5585 79.015ZM85.8538 95.694C84.9438 95.694 84.1682 95.5943 83.5268 95.395C82.8855 95.1957 82.3525 94.9357 81.9278 94.615C81.5118 94.303 81.1955 93.978 80.9788 93.64L81.8888 92.899C82.0275 93.1157 82.2355 93.3627 82.5128 93.64C82.7902 93.9173 83.1888 94.1557 83.7088 94.355C84.2375 94.563 84.9482 94.667 85.8408 94.667C86.7248 94.667 87.4658 94.459 88.0638 94.043C88.6705 93.6357 89.1255 93.094 89.4288 92.418C89.7322 91.742 89.8838 91.0097 89.8838 90.221V89.818H90.9498V90.312C90.9498 91.4733 90.7202 92.4527 90.2608 93.25C89.8015 94.056 89.1862 94.6627 88.4148 95.07C87.6522 95.486 86.7985 95.694 85.8538 95.694ZM89.8838 90V87.686C89.8318 87.92 89.6325 88.2493 89.2858 88.674C88.9392 89.0987 88.4582 89.48 87.8428 89.818C87.2275 90.1473 86.4952 90.312 85.6458 90.312C84.6925 90.312 83.8085 90.0953 82.9938 89.662C82.1792 89.22 81.5205 88.5787 81.0178 87.738C80.5238 86.8887 80.2768 85.866 80.2768 84.67C80.2768 83.474 80.5238 82.4557 81.0178 81.615C81.5205 80.7657 82.1792 80.12 82.9938 79.678C83.8085 79.236 84.6925 79.015 85.6458 79.015C86.4865 79.015 87.2145 79.1797 87.8298 79.509C88.4538 79.8297 88.9435 80.198 89.2988 80.614C89.6542 81.0213 89.8492 81.3637 89.8838 81.641V79.327H90.9498V90H89.8838ZM81.3688 84.67C81.3688 85.632 81.5768 86.4597 81.9928 87.153C82.4088 87.8463 82.9462 88.375 83.6048 88.739C84.2635 89.103 84.9525 89.285 85.6718 89.285C86.4692 89.285 87.1798 89.0987 87.8038 88.726C88.4278 88.3533 88.9218 87.8203 89.2858 87.127C89.6498 86.4337 89.8318 85.6147 89.8318 84.67C89.8318 83.7253 89.6498 82.9063 89.2858 82.213C88.9218 81.5197 88.4278 80.9867 87.8038 80.614C87.1798 80.2327 86.4692 80.042 85.6718 80.042C84.9525 80.042 84.2635 80.2283 83.6048 80.601C82.9462 80.965 82.4088 81.4937 81.9928 82.187C81.5768 82.8803 81.3688 83.708 81.3688 84.67ZM105.171 89.285C105.968 89.285 106.605 89.1637 107.082 88.921C107.567 88.6697 107.862 88.5007 107.966 88.414L108.59 89.298C108.529 89.35 108.338 89.4583 108.018 89.623C107.706 89.7877 107.294 89.9437 106.783 90.091C106.28 90.2383 105.708 90.312 105.067 90.312C104.269 90.312 103.481 90.104 102.701 89.688C101.921 89.272 101.271 88.6437 100.751 87.803C100.239 86.9623 99.9836 85.9137 99.9836 84.657C99.9836 83.3917 100.239 82.343 100.751 81.511C101.271 80.679 101.921 80.055 102.701 79.639C103.481 79.223 104.269 79.015 105.067 79.015C105.708 79.015 106.271 79.0973 106.757 79.262C107.242 79.418 107.636 79.5913 107.94 79.782C108.243 79.9727 108.429 80.107 108.499 80.185L107.901 81.082C107.823 81.004 107.671 80.8827 107.446 80.718C107.22 80.5447 106.917 80.3887 106.536 80.25C106.163 80.1113 105.708 80.042 105.171 80.042C104.521 80.042 103.879 80.2197 103.247 80.575C102.614 80.9303 102.09 81.4503 101.674 82.135C101.266 82.8197 101.063 83.6603 101.063 84.657C101.063 85.6537 101.266 86.4987 101.674 87.192C102.09 87.8767 102.614 88.3967 103.247 88.752C103.879 89.1073 104.521 89.285 105.171 89.285ZM115.837 90.312C114.779 90.312 113.843 90.0607 113.028 89.558C112.223 89.0553 111.586 88.3793 111.118 87.53C110.65 86.6807 110.416 85.736 110.416 84.696C110.416 83.656 110.65 82.707 111.118 81.849C111.586 80.9823 112.223 80.2933 113.028 79.782C113.843 79.2707 114.779 79.015 115.837 79.015C116.885 79.015 117.813 79.2707 118.619 79.782C119.433 80.2933 120.07 80.9823 120.53 81.849C120.989 82.707 121.219 83.656 121.219 84.696C121.219 85.736 120.989 86.6807 120.53 87.53C120.07 88.3793 119.433 89.0553 118.619 89.558C117.813 90.0607 116.885 90.312 115.837 90.312ZM115.837 89.272C116.695 89.272 117.449 89.0727 118.099 88.674C118.749 88.2753 119.251 87.7293 119.607 87.036C119.962 86.3427 120.14 85.5627 120.14 84.696C120.14 83.8293 119.962 83.045 119.607 82.343C119.251 81.641 118.749 81.0863 118.099 80.679C117.449 80.263 116.695 80.055 115.837 80.055C114.97 80.055 114.212 80.263 113.562 80.679C112.912 81.0863 112.405 81.641 112.041 82.343C111.677 83.045 111.495 83.8293 111.495 84.696C111.495 85.5627 111.677 86.3427 112.041 87.036C112.405 87.7293 112.912 88.2753 113.562 88.674C114.212 89.0727 114.97 89.272 115.837 89.272ZM135.524 79.015C136.304 79.015 136.954 79.1927 137.474 79.548C138.003 79.8947 138.397 80.4233 138.657 81.134C138.926 81.836 139.06 82.733 139.06 83.825V90H137.968V84.189C137.968 82.7417 137.773 81.6887 137.383 81.03C137.002 80.3713 136.321 80.042 135.342 80.042C134.857 80.042 134.367 80.1807 133.873 80.458C133.388 80.7267 132.98 81.1643 132.651 81.771C132.322 82.3777 132.157 83.1837 132.157 84.189V90H131.091V84.189C131.091 82.7417 130.84 81.6887 130.337 81.03C129.843 80.3713 129.197 80.042 128.4 80.042C127.906 80.042 127.421 80.172 126.944 80.432C126.467 80.692 126.073 81.1253 125.761 81.732C125.449 82.3387 125.293 83.1577 125.293 84.189V90H124.201V79.327H125.293V81.043C125.38 80.7743 125.57 80.484 125.865 80.172C126.168 79.8513 126.558 79.5783 127.035 79.353C127.52 79.1277 128.079 79.015 128.712 79.015C129.371 79.015 129.917 79.171 130.35 79.483C130.783 79.795 131.117 80.1633 131.351 80.588C131.594 81.0127 131.737 81.3897 131.78 81.719C131.91 81.2943 132.144 80.8783 132.482 80.471C132.82 80.055 133.245 79.7083 133.756 79.431C134.276 79.1537 134.865 79.015 135.524 79.015ZM154.237 79.015C155.017 79.015 155.667 79.1927 156.187 79.548C156.716 79.8947 157.11 80.4233 157.37 81.134C157.639 81.836 157.773 82.733 157.773 83.825V90H156.681V84.189C156.681 82.7417 156.486 81.6887 156.096 81.03C155.715 80.3713 155.034 80.042 154.055 80.042C153.57 80.042 153.08 80.1807 152.586 80.458C152.101 80.7267 151.693 81.1643 151.364 81.771C151.035 82.3777 150.87 83.1837 150.87 84.189V90H149.804V84.189C149.804 82.7417 149.553 81.6887 149.05 81.03C148.556 80.3713 147.91 80.042 147.113 80.042C146.619 80.042 146.134 80.172 145.657 80.432C145.18 80.692 144.786 81.1253 144.474 81.732C144.162 82.3387 144.006 83.1577 144.006 84.189V90H142.914V79.327H144.006V81.043C144.093 80.7743 144.283 80.484 144.578 80.172C144.881 79.8513 145.271 79.5783 145.748 79.353C146.233 79.1277 146.792 79.015 147.425 79.015C148.084 79.015 148.63 79.171 149.063 79.483C149.496 79.795 149.83 80.1633 150.064 80.588C150.307 81.0127 150.45 81.3897 150.493 81.719C150.623 81.2943 150.857 80.8783 151.195 80.471C151.533 80.055 151.958 79.7083 152.469 79.431C152.989 79.1537 153.578 79.015 154.237 79.015ZM162.446 85.008C162.446 86.3167 162.736 87.3567 163.317 88.128C163.906 88.8907 164.786 89.272 165.956 89.272C167.126 89.272 168.001 88.8907 168.582 88.128C169.171 87.3567 169.466 86.3167 169.466 85.008V79.327H170.558V85.242C170.558 86.2127 170.376 87.0837 170.012 87.855C169.656 88.6177 169.136 89.22 168.452 89.662C167.776 90.0953 166.944 90.312 165.956 90.312C164.976 90.312 164.144 90.0953 163.46 89.662C162.775 89.22 162.251 88.6177 161.887 87.855C161.531 87.0837 161.354 86.2127 161.354 85.242V79.327H162.446V85.008ZM179.107 79.015C179.766 79.015 180.412 79.158 181.044 79.444C181.677 79.73 182.197 80.185 182.604 80.809C183.012 81.433 183.215 82.2433 183.215 83.24V90H182.097V83.539C182.097 82.2737 181.803 81.3723 181.213 80.835C180.624 80.289 179.879 80.016 178.977 80.016C178.371 80.016 177.786 80.1937 177.222 80.549C176.668 80.8957 176.208 81.3723 175.844 81.979C175.48 82.577 175.298 83.2487 175.298 83.994V90H174.206V79.327H175.298V81.459C175.35 81.147 175.554 80.8003 175.909 80.419C176.265 80.0377 176.72 79.7083 177.274 79.431C177.838 79.1537 178.449 79.015 179.107 79.015ZM186.97 90V79.327H188.062V90H186.97ZM187.542 74.66C187.273 74.66 187.043 74.569 186.853 74.387C186.671 74.1963 186.58 73.9667 186.58 73.698C186.58 73.4293 186.675 73.204 186.866 73.022C187.056 72.8313 187.282 72.736 187.542 72.736C187.715 72.736 187.875 72.7793 188.023 72.866C188.179 72.9527 188.3 73.0697 188.387 73.217C188.482 73.3557 188.53 73.516 188.53 73.698C188.53 73.9667 188.43 74.1963 188.231 74.387C188.04 74.569 187.81 74.66 187.542 74.66ZM191.13 79.327H193.418V74.946H194.497V79.327H197.487V80.367H194.497V87.218C194.497 87.9807 194.636 88.5137 194.913 88.817C195.199 89.1203 195.542 89.272 195.94 89.272C196.33 89.272 196.621 89.207 196.811 89.077C197.011 88.9383 197.128 88.8473 197.162 88.804L197.747 89.675C197.695 89.7183 197.587 89.792 197.422 89.896C197.266 90 197.054 90.0953 196.785 90.182C196.525 90.2687 196.2 90.312 195.81 90.312C195.143 90.312 194.575 90.091 194.107 89.649C193.648 89.207 193.418 88.492 193.418 87.504V80.367H191.13V79.327ZM200.376 90V79.327H201.468V90H200.376ZM200.948 74.66C200.679 74.66 200.45 74.569 200.259 74.387C200.077 74.1963 199.986 73.9667 199.986 73.698C199.986 73.4293 200.081 73.204 200.272 73.022C200.463 72.8313 200.688 72.736 200.948 72.736C201.121 72.736 201.282 72.7793 201.429 72.866C201.585 72.9527 201.706 73.0697 201.793 73.217C201.888 73.3557 201.936 73.516 201.936 73.698C201.936 73.9667 201.836 74.1963 201.637 74.387C201.446 74.569 201.217 74.66 200.948 74.66ZM205.733 84.683C205.733 85.489 205.884 86.2473 206.188 86.958C206.491 87.6687 206.955 88.245 207.579 88.687C208.203 89.1203 208.987 89.337 209.932 89.337C210.694 89.337 211.323 89.2113 211.817 88.96C212.319 88.7087 212.714 88.4097 213 88.063C213.294 87.7163 213.502 87.413 213.624 87.153L214.443 87.829C214.113 88.3663 213.736 88.8213 213.312 89.194C212.887 89.5667 212.397 89.844 211.843 90.026C211.288 90.2167 210.629 90.312 209.867 90.312C208.749 90.312 207.795 90.052 207.007 89.532C206.227 89.012 205.633 88.3143 205.226 87.439C204.827 86.5637 204.628 85.593 204.628 84.527C204.628 83.487 204.827 82.551 205.226 81.719C205.633 80.887 206.222 80.2283 206.994 79.743C207.774 79.2577 208.714 79.015 209.815 79.015C210.785 79.015 211.635 79.2403 212.363 79.691C213.091 80.133 213.654 80.744 214.053 81.524C214.46 82.2953 214.664 83.1837 214.664 84.189C214.664 84.267 214.659 84.3537 214.651 84.449C214.642 84.5357 214.638 84.6137 214.638 84.683H205.733ZM213.52 83.695C213.502 83.175 213.377 82.629 213.143 82.057C212.917 81.4763 212.536 80.9867 211.999 80.588C211.47 80.1893 210.742 79.99 209.815 79.99C208.835 79.99 208.06 80.185 207.488 80.575C206.924 80.9563 206.513 81.4373 206.253 82.018C206.001 82.59 205.85 83.149 205.798 83.695H213.52ZM220.927 79.015C221.395 79.015 221.833 79.0713 222.24 79.184C222.656 79.288 223.024 79.4223 223.345 79.587C223.666 79.743 223.908 79.8903 224.073 80.029L223.449 80.848C223.267 80.6747 222.951 80.4883 222.5 80.289C222.049 80.0897 221.538 79.99 220.966 79.99C220.229 79.99 219.601 80.146 219.081 80.458C218.561 80.77 218.301 81.2207 218.301 81.81C218.301 82.3733 218.561 82.824 219.081 83.162C219.61 83.5 220.29 83.7773 221.122 83.994C221.755 84.15 222.322 84.3493 222.825 84.592C223.328 84.826 223.722 85.1423 224.008 85.541C224.303 85.9397 224.45 86.464 224.45 87.114C224.45 87.66 224.342 88.1323 224.125 88.531C223.908 88.9297 223.609 89.259 223.228 89.519C222.847 89.779 222.409 89.974 221.915 90.104C221.421 90.2427 220.892 90.312 220.329 90.312C219.783 90.312 219.272 90.247 218.795 90.117C218.318 89.9957 217.907 89.844 217.56 89.662C217.213 89.4713 216.945 89.298 216.754 89.142L217.404 88.219C217.629 88.4617 218.002 88.7087 218.522 88.96C219.042 89.2027 219.657 89.324 220.368 89.324C221.217 89.324 221.919 89.1203 222.474 88.713C223.029 88.3057 223.306 87.777 223.306 87.127C223.306 86.633 223.172 86.243 222.903 85.957C222.643 85.671 222.296 85.4413 221.863 85.268C221.438 85.0947 220.988 84.9517 220.511 84.839C220.052 84.7177 219.618 84.579 219.211 84.423C218.812 84.2583 218.461 84.0547 218.158 83.812C217.855 83.5693 217.616 83.2833 217.443 82.954C217.27 82.616 217.183 82.226 217.183 81.784C217.183 81.2293 217.352 80.7483 217.69 80.341C218.028 79.925 218.483 79.6 219.055 79.366C219.627 79.132 220.251 79.015 220.927 79.015ZM0.429 103.327H2.899V100.155C2.899 99.037 3.06367 98.166 3.393 97.542C3.72233 96.9093 4.13833 96.463 4.641 96.203C5.14367 95.9343 5.655 95.8 6.175 95.8C6.79033 95.8 7.267 95.891 7.605 96.073C7.95167 96.2463 8.151 96.3503 8.203 96.385L7.709 97.295C7.657 97.2517 7.501 97.1607 7.241 97.022C6.98967 96.8747 6.62567 96.801 6.149 96.801C5.80233 96.801 5.46 96.8877 5.122 97.061C4.79267 97.2343 4.51533 97.5723 4.29 98.075C4.07333 98.5777 3.965 99.336 3.965 100.35V103.327H7.267V104.354H3.965V114H2.899V104.354H0.429V103.327ZM14.1724 114.312C13.1151 114.312 12.1791 114.061 11.3644 113.558C10.5584 113.055 9.92144 112.379 9.45344 111.53C8.98544 110.681 8.75144 109.736 8.75144 108.696C8.75144 107.656 8.98544 106.707 9.45344 105.849C9.92144 104.982 10.5584 104.293 11.3644 103.782C12.1791 103.271 13.1151 103.015 14.1724 103.015C15.2211 103.015 16.1484 103.271 16.9544 103.782C17.7691 104.293 18.4061 104.982 18.8654 105.849C19.3248 106.707 19.5544 107.656 19.5544 108.696C19.5544 109.736 19.3248 110.681 18.8654 111.53C18.4061 112.379 17.7691 113.055 16.9544 113.558C16.1484 114.061 15.2211 114.312 14.1724 114.312ZM14.1724 113.272C15.0304 113.272 15.7844 113.073 16.4344 112.674C17.0844 112.275 17.5871 111.729 17.9424 111.036C18.2978 110.343 18.4754 109.563 18.4754 108.696C18.4754 107.829 18.2978 107.045 17.9424 106.343C17.5871 105.641 17.0844 105.086 16.4344 104.679C15.7844 104.263 15.0304 104.055 14.1724 104.055C13.3058 104.055 12.5474 104.263 11.8974 104.679C11.2474 105.086 10.7404 105.641 10.3764 106.343C10.0124 107.045 9.83044 107.829 9.83044 108.696C9.83044 109.563 10.0124 110.343 10.3764 111.036C10.7404 111.729 11.2474 112.275 11.8974 112.674C12.5474 113.073 13.3058 113.272 14.1724 113.272ZM23.6029 114H22.5369V103.327H23.6029V105.303H23.5379C23.5726 105.069 23.7286 104.774 24.0059 104.419C24.2833 104.055 24.6646 103.73 25.1499 103.444C25.6439 103.158 26.2159 103.015 26.8659 103.015C27.3686 103.015 27.7933 103.08 28.1399 103.21C28.4953 103.331 28.7379 103.453 28.8679 103.574L28.3739 104.523C28.2526 104.419 28.0359 104.315 27.7239 104.211C27.4206 104.098 27.0523 104.042 26.6189 104.042C26.0209 104.042 25.4923 104.254 25.0329 104.679C24.5823 105.095 24.2313 105.593 23.9799 106.174C23.7286 106.755 23.6029 107.283 23.6029 107.76V114ZM45.5772 114V111.686C45.5252 111.92 45.3259 112.249 44.9792 112.674C44.6325 113.099 44.1515 113.48 43.5362 113.818C42.9209 114.147 42.1885 114.312 41.3392 114.312C40.3859 114.312 39.5019 114.095 38.6872 113.662C37.8725 113.22 37.2139 112.579 36.7112 111.738C36.2172 110.889 35.9702 109.866 35.9702 108.67C35.9702 107.474 36.2172 106.456 36.7112 105.615C37.2139 104.766 37.8725 104.12 38.6872 103.678C39.5019 103.236 40.3859 103.015 41.3392 103.015C42.1799 103.015 42.9079 103.18 43.5232 103.509C44.1472 103.83 44.6369 104.198 44.9922 104.614C45.3475 105.021 45.5425 105.364 45.5772 105.641V103.327H46.6432V114H45.5772ZM37.0622 108.67C37.0622 109.632 37.2702 110.46 37.6862 111.153C38.1022 111.846 38.6395 112.375 39.2982 112.739C39.9569 113.103 40.6459 113.285 41.3652 113.285C42.1625 113.285 42.8732 113.099 43.4972 112.726C44.1212 112.353 44.6152 111.82 44.9792 111.127C45.3432 110.434 45.5252 109.615 45.5252 108.67C45.5252 107.725 45.3432 106.906 44.9792 106.213C44.6152 105.52 44.1212 104.987 43.4972 104.614C42.8732 104.233 42.1625 104.042 41.3652 104.042C40.6459 104.042 39.9569 104.228 39.2982 104.601C38.6395 104.965 38.1022 105.494 37.6862 106.187C37.2702 106.88 37.0622 107.708 37.0622 108.67ZM56.187 114V96.112H57.305V105.641C57.3483 105.346 57.5563 104.995 57.929 104.588C58.3017 104.172 58.8087 103.808 59.45 103.496C60.1 103.175 60.854 103.015 61.712 103.015C62.6653 103.015 63.532 103.236 64.312 103.678C65.092 104.12 65.7117 104.766 66.171 105.615C66.639 106.456 66.873 107.474 66.873 108.67C66.873 109.866 66.639 110.889 66.171 111.738C65.7117 112.579 65.092 113.22 64.312 113.662C63.532 114.095 62.6653 114.312 61.712 114.312C60.854 114.312 60.1 114.152 59.45 113.831C58.8 113.502 58.2843 113.129 57.903 112.713C57.5217 112.297 57.3093 111.955 57.266 111.686V114H56.187ZM65.768 108.67C65.768 107.708 65.573 106.88 65.183 106.187C64.8017 105.494 64.299 104.965 63.675 104.601C63.0597 104.228 62.3923 104.042 61.673 104.042C60.8843 104.042 60.1563 104.233 59.489 104.614C58.8303 104.987 58.3017 105.52 57.903 106.213C57.5043 106.906 57.305 107.725 57.305 108.67C57.305 109.615 57.5043 110.434 57.903 111.127C58.3017 111.82 58.8303 112.353 59.489 112.726C60.1563 113.099 60.8843 113.285 61.673 113.285C62.3923 113.285 63.0597 113.103 63.675 112.739C64.299 112.375 64.8017 111.846 65.183 111.153C65.573 110.46 65.768 109.632 65.768 108.67ZM69.512 108.683C69.512 109.489 69.6637 110.247 69.967 110.958C70.2703 111.669 70.734 112.245 71.358 112.687C71.982 113.12 72.7663 113.337 73.711 113.337C74.4737 113.337 75.102 113.211 75.596 112.96C76.0987 112.709 76.493 112.41 76.779 112.063C77.0737 111.716 77.2817 111.413 77.403 111.153L78.222 111.829C77.8927 112.366 77.5157 112.821 77.091 113.194C76.6663 113.567 76.1767 113.844 75.622 114.026C75.0673 114.217 74.4087 114.312 73.646 114.312C72.528 114.312 71.5747 114.052 70.786 113.532C70.006 113.012 69.4123 112.314 69.005 111.439C68.6063 110.564 68.407 109.593 68.407 108.527C68.407 107.487 68.6063 106.551 69.005 105.719C69.4123 104.887 70.0017 104.228 70.773 103.743C71.553 103.258 72.4933 103.015 73.594 103.015C74.5647 103.015 75.414 103.24 76.142 103.691C76.87 104.133 77.4333 104.744 77.832 105.524C78.2393 106.295 78.443 107.184 78.443 108.189C78.443 108.267 78.4387 108.354 78.43 108.449C78.4213 108.536 78.417 108.614 78.417 108.683H69.512ZM77.299 107.695C77.2817 107.175 77.156 106.629 76.922 106.057C76.6967 105.476 76.3153 104.987 75.778 104.588C75.2493 104.189 74.5213 103.99 73.594 103.99C72.6147 103.99 71.839 104.185 71.267 104.575C70.7037 104.956 70.292 105.437 70.032 106.018C69.7807 106.59 69.629 107.149 69.577 107.695H77.299ZM80.3512 103.327H82.6392V98.946H83.7182V103.327H86.7082V104.367H83.7182V111.218C83.7182 111.981 83.8568 112.514 84.1342 112.817C84.4202 113.12 84.7625 113.272 85.1612 113.272C85.5512 113.272 85.8415 113.207 86.0322 113.077C86.2315 112.938 86.3485 112.847 86.3832 112.804L86.9682 113.675C86.9162 113.718 86.8078 113.792 86.6432 113.896C86.4872 114 86.2748 114.095 86.0062 114.182C85.7462 114.269 85.4212 114.312 85.0312 114.312C84.3638 114.312 83.7962 114.091 83.3282 113.649C82.8688 113.207 82.6392 112.492 82.6392 111.504V104.367H80.3512V103.327ZM88.2477 103.327H90.5357V98.946H91.6147V103.327H94.6047V104.367H91.6147V111.218C91.6147 111.981 91.7533 112.514 92.0307 112.817C92.3167 113.12 92.659 113.272 93.0577 113.272C93.4477 113.272 93.738 113.207 93.9287 113.077C94.128 112.938 94.245 112.847 94.2797 112.804L94.8647 113.675C94.8127 113.718 94.7043 113.792 94.5397 113.896C94.3837 114 94.1713 114.095 93.9027 114.182C93.6427 114.269 93.3177 114.312 92.9277 114.312C92.2603 114.312 91.6927 114.091 91.2247 113.649C90.7653 113.207 90.5357 112.492 90.5357 111.504V104.367H88.2477V103.327ZM97.4671 108.683C97.4671 109.489 97.6188 110.247 97.9221 110.958C98.2254 111.669 98.6891 112.245 99.3131 112.687C99.9371 113.12 100.721 113.337 101.666 113.337C102.429 113.337 103.057 113.211 103.551 112.96C104.054 112.709 104.448 112.41 104.734 112.063C105.029 111.716 105.237 111.413 105.358 111.153L106.177 111.829C105.848 112.366 105.471 112.821 105.046 113.194C104.621 113.567 104.132 113.844 103.577 114.026C103.022 114.217 102.364 114.312 101.601 114.312C100.483 114.312 99.5298 114.052 98.7411 113.532C97.9611 113.012 97.3674 112.314 96.9601 111.439C96.5614 110.564 96.3621 109.593 96.3621 108.527C96.3621 107.487 96.5614 106.551 96.9601 105.719C97.3674 104.887 97.9568 104.228 98.7281 103.743C99.5081 103.258 100.448 103.015 101.549 103.015C102.52 103.015 103.369 103.24 104.097 103.691C104.825 104.133 105.388 104.744 105.787 105.524C106.194 106.295 106.398 107.184 106.398 108.189C106.398 108.267 106.394 108.354 106.385 108.449C106.376 108.536 106.372 108.614 106.372 108.683H97.4671ZM105.254 107.695C105.237 107.175 105.111 106.629 104.877 106.057C104.652 105.476 104.27 104.987 103.733 104.588C103.204 104.189 102.476 103.99 101.549 103.99C100.57 103.99 99.7941 104.185 99.2221 104.575C98.6588 104.956 98.2471 105.437 97.9871 106.018C97.7358 106.59 97.5841 107.149 97.5321 107.695H105.254ZM110.464 114H109.398V103.327H110.464V105.303H110.399C110.434 105.069 110.59 104.774 110.867 104.419C111.145 104.055 111.526 103.73 112.011 103.444C112.505 103.158 113.077 103.015 113.727 103.015C114.23 103.015 114.655 103.08 115.001 103.21C115.357 103.331 115.599 103.453 115.729 103.574L115.235 104.523C115.114 104.419 114.897 104.315 114.585 104.211C114.282 104.098 113.914 104.042 113.48 104.042C112.882 104.042 112.354 104.254 111.894 104.679C111.444 105.095 111.093 105.593 110.841 106.174C110.59 106.755 110.464 107.283 110.464 107.76V114ZM13.065 127.015C13.845 127.015 14.495 127.193 15.015 127.548C15.5437 127.895 15.938 128.423 16.198 129.134C16.4667 129.836 16.601 130.733 16.601 131.825V138H15.509V132.189C15.509 130.742 15.314 129.689 14.924 129.03C14.5427 128.371 13.8623 128.042 12.883 128.042C12.3977 128.042 11.908 128.181 11.414 128.458C10.9287 128.727 10.5213 129.164 10.192 129.771C9.86267 130.378 9.698 131.184 9.698 132.189V138H8.632V132.189C8.632 130.742 8.38067 129.689 7.878 129.03C7.384 128.371 6.73833 128.042 5.941 128.042C5.447 128.042 4.96167 128.172 4.485 128.432C4.00833 128.692 3.614 129.125 3.302 129.732C2.99 130.339 2.834 131.158 2.834 132.189V138H1.742V127.327H2.834V129.043C2.92067 128.774 3.11133 128.484 3.406 128.172C3.70933 127.851 4.09933 127.578 4.576 127.353C5.06133 127.128 5.62033 127.015 6.253 127.015C6.91167 127.015 7.45767 127.171 7.891 127.483C8.32433 127.795 8.658 128.163 8.892 128.588C9.13467 129.013 9.27767 129.39 9.321 129.719C9.451 129.294 9.685 128.878 10.023 128.471C10.361 128.055 10.7857 127.708 11.297 127.431C11.817 127.154 12.4063 127.015 13.065 127.015ZM24.8619 138.312C23.8046 138.312 22.8686 138.061 22.0539 137.558C21.2479 137.055 20.6109 136.379 20.1429 135.53C19.6749 134.681 19.4409 133.736 19.4409 132.696C19.4409 131.656 19.6749 130.707 20.1429 129.849C20.6109 128.982 21.2479 128.293 22.0539 127.782C22.8686 127.271 23.8046 127.015 24.8619 127.015C25.9106 127.015 26.8379 127.271 27.6439 127.782C28.4586 128.293 29.0956 128.982 29.5549 129.849C30.0142 130.707 30.2439 131.656 30.2439 132.696C30.2439 133.736 30.0142 134.681 29.5549 135.53C29.0956 136.379 28.4586 137.055 27.6439 137.558C26.8379 138.061 25.9106 138.312 24.8619 138.312ZM24.8619 137.272C25.7199 137.272 26.4739 137.073 27.1239 136.674C27.7739 136.275 28.2766 135.729 28.6319 135.036C28.9872 134.343 29.1649 133.563 29.1649 132.696C29.1649 131.829 28.9872 131.045 28.6319 130.343C28.2766 129.641 27.7739 129.086 27.1239 128.679C26.4739 128.263 25.7199 128.055 24.8619 128.055C23.9952 128.055 23.2369 128.263 22.5869 128.679C21.9369 129.086 21.4299 129.641 21.0659 130.343C20.7019 131.045 20.5199 131.829 20.5199 132.696C20.5199 133.563 20.7019 134.343 21.0659 135.036C21.4299 135.729 21.9369 136.275 22.5869 136.674C23.2369 137.073 23.9952 137.272 24.8619 137.272ZM34.2924 138H33.2264V127.327H34.2924V129.303H34.2274C34.262 129.069 34.418 128.774 34.6954 128.419C34.9727 128.055 35.354 127.73 35.8394 127.444C36.3334 127.158 36.9054 127.015 37.5554 127.015C38.058 127.015 38.4827 127.08 38.8294 127.21C39.1847 127.331 39.4274 127.453 39.5574 127.574L39.0634 128.523C38.942 128.419 38.7254 128.315 38.4134 128.211C38.11 128.098 37.7417 128.042 37.3084 128.042C36.7104 128.042 36.1817 128.254 35.7224 128.679C35.2717 129.095 34.9207 129.593 34.6694 130.174C34.418 130.755 34.2924 131.283 34.2924 131.76V138ZM41.3792 132.683C41.3792 133.489 41.5309 134.247 41.8342 134.958C42.1375 135.669 42.6012 136.245 43.2252 136.687C43.8492 137.12 44.6335 137.337 45.5782 137.337C46.3409 137.337 46.9692 137.211 47.4632 136.96C47.9659 136.709 48.3602 136.41 48.6462 136.063C48.9409 135.716 49.1489 135.413 49.2702 135.153L50.0892 135.829C49.7599 136.366 49.3829 136.821 48.9582 137.194C48.5335 137.567 48.0439 137.844 47.4892 138.026C46.9345 138.217 46.2759 138.312 45.5132 138.312C44.3952 138.312 43.4419 138.052 42.6532 137.532C41.8732 137.012 41.2795 136.314 40.8722 135.439C40.4735 134.564 40.2742 133.593 40.2742 132.527C40.2742 131.487 40.4735 130.551 40.8722 129.719C41.2795 128.887 41.8689 128.228 42.6402 127.743C43.4202 127.258 44.3605 127.015 45.4612 127.015C46.4319 127.015 47.2812 127.24 48.0092 127.691C48.7372 128.133 49.3005 128.744 49.6992 129.524C50.1065 130.295 50.3102 131.184 50.3102 132.189C50.3102 132.267 50.3059 132.354 50.2972 132.449C50.2885 132.536 50.2842 132.614 50.2842 132.683H41.3792ZM49.1662 131.695C49.1489 131.175 49.0232 130.629 48.7892 130.057C48.5639 129.476 48.1825 128.987 47.6452 128.588C47.1165 128.189 46.3885 127.99 45.4612 127.99C44.4819 127.99 43.7062 128.185 43.1342 128.575C42.5709 128.956 42.1592 129.437 41.8992 130.018C41.6479 130.59 41.4962 131.149 41.4442 131.695H49.1662ZM62.7687 127.015C63.2367 127.015 63.6743 127.071 64.0817 127.184C64.4977 127.288 64.866 127.422 65.1867 127.587C65.5073 127.743 65.75 127.89 65.9147 128.029L65.2907 128.848C65.1087 128.675 64.7923 128.488 64.3417 128.289C63.891 128.09 63.3797 127.99 62.8077 127.99C62.071 127.99 61.4427 128.146 60.9227 128.458C60.4027 128.77 60.1427 129.221 60.1427 129.81C60.1427 130.373 60.4027 130.824 60.9227 131.162C61.4513 131.5 62.1317 131.777 62.9637 131.994C63.5963 132.15 64.164 132.349 64.6667 132.592C65.1693 132.826 65.5637 133.142 65.8497 133.541C66.1443 133.94 66.2917 134.464 66.2917 135.114C66.2917 135.66 66.1833 136.132 65.9667 136.531C65.75 136.93 65.451 137.259 65.0697 137.519C64.6883 137.779 64.2507 137.974 63.7567 138.104C63.2627 138.243 62.734 138.312 62.1707 138.312C61.6247 138.312 61.1133 138.247 60.6367 138.117C60.16 137.996 59.7483 137.844 59.4017 137.662C59.055 137.471 58.7863 137.298 58.5957 137.142L59.2457 136.219C59.471 136.462 59.8437 136.709 60.3637 136.96C60.8837 137.203 61.499 137.324 62.2097 137.324C63.059 137.324 63.761 137.12 64.3157 136.713C64.8703 136.306 65.1477 135.777 65.1477 135.127C65.1477 134.633 65.0133 134.243 64.7447 133.957C64.4847 133.671 64.138 133.441 63.7047 133.268C63.28 133.095 62.8293 132.952 62.3527 132.839C61.8933 132.718 61.46 132.579 61.0527 132.423C60.654 132.258 60.303 132.055 59.9997 131.812C59.6963 131.569 59.458 131.283 59.2847 130.954C59.1113 130.616 59.0247 130.226 59.0247 129.784C59.0247 129.229 59.1937 128.748 59.5317 128.341C59.8697 127.925 60.3247 127.6 60.8967 127.366C61.4687 127.132 62.0927 127.015 62.7687 127.015ZM70.2778 133.008C70.2778 134.317 70.5681 135.357 71.1488 136.128C71.7381 136.891 72.6178 137.272 73.7878 137.272C74.9578 137.272 75.8331 136.891 76.4138 136.128C77.0031 135.357 77.2978 134.317 77.2978 133.008V127.327H78.3898V133.242C78.3898 134.213 78.2078 135.084 77.8438 135.855C77.4885 136.618 76.9685 137.22 76.2838 137.662C75.6078 138.095 74.7758 138.312 73.7878 138.312C72.8085 138.312 71.9765 138.095 71.2918 137.662C70.6071 137.22 70.0828 136.618 69.7188 135.855C69.3635 135.084 69.1858 134.213 69.1858 133.242V127.327H70.2778V133.008ZM85.2902 127.015C85.7582 127.015 86.1958 127.071 86.6032 127.184C87.0192 127.288 87.3875 127.422 87.7082 127.587C88.0288 127.743 88.2715 127.89 88.4362 128.029L87.8122 128.848C87.6302 128.675 87.3138 128.488 86.8632 128.289C86.4125 128.09 85.9012 127.99 85.3292 127.99C84.5925 127.99 83.9642 128.146 83.4442 128.458C82.9242 128.77 82.6642 129.221 82.6642 129.81C82.6642 130.373 82.9242 130.824 83.4442 131.162C83.9728 131.5 84.6532 131.777 85.4852 131.994C86.1178 132.15 86.6855 132.349 87.1882 132.592C87.6908 132.826 88.0852 133.142 88.3712 133.541C88.6658 133.94 88.8132 134.464 88.8132 135.114C88.8132 135.66 88.7048 136.132 88.4882 136.531C88.2715 136.93 87.9725 137.259 87.5912 137.519C87.2098 137.779 86.7722 137.974 86.2782 138.104C85.7842 138.243 85.2555 138.312 84.6922 138.312C84.1462 138.312 83.6348 138.247 83.1582 138.117C82.6815 137.996 82.2698 137.844 81.9232 137.662C81.5765 137.471 81.3078 137.298 81.1172 137.142L81.7672 136.219C81.9925 136.462 82.3652 136.709 82.8852 136.96C83.4052 137.203 84.0205 137.324 84.7312 137.324C85.5805 137.324 86.2825 137.12 86.8372 136.713C87.3918 136.306 87.6692 135.777 87.6692 135.127C87.6692 134.633 87.5348 134.243 87.2662 133.957C87.0062 133.671 86.6595 133.441 86.2262 133.268C85.8015 133.095 85.3508 132.952 84.8742 132.839C84.4148 132.718 83.9815 132.579 83.5742 132.423C83.1755 132.258 82.8245 132.055 82.5212 131.812C82.2178 131.569 81.9795 131.283 81.8062 130.954C81.6328 130.616 81.5462 130.226 81.5462 129.784C81.5462 129.229 81.7152 128.748 82.0532 128.341C82.3912 127.925 82.8462 127.6 83.4182 127.366C83.9902 127.132 84.6142 127.015 85.2902 127.015ZM90.7105 127.327H92.9985V122.946H94.0775V127.327H97.0675V128.367H94.0775V135.218C94.0775 135.981 94.2162 136.514 94.4935 136.817C94.7795 137.12 95.1219 137.272 95.5205 137.272C95.9105 137.272 96.2009 137.207 96.3915 137.077C96.5909 136.938 96.7079 136.847 96.7425 136.804L97.3275 137.675C97.2755 137.718 97.1672 137.792 97.0025 137.896C96.8465 138 96.6342 138.095 96.3655 138.182C96.1055 138.269 95.7805 138.312 95.3905 138.312C94.7232 138.312 94.1555 138.091 93.6875 137.649C93.2282 137.207 92.9985 136.492 92.9985 135.504V128.367H90.7105V127.327ZM108.419 138V135.686C108.367 135.92 108.168 136.249 107.821 136.674C107.474 137.099 106.993 137.48 106.378 137.818C105.763 138.147 105.03 138.312 104.181 138.312C103.228 138.312 102.344 138.095 101.529 137.662C100.714 137.22 100.056 136.579 99.553 135.738C99.059 134.889 98.812 133.866 98.812 132.67C98.812 131.474 99.059 130.456 99.553 129.615C100.056 128.766 100.714 128.12 101.529 127.678C102.344 127.236 103.228 127.015 104.181 127.015C105.022 127.015 105.75 127.18 106.365 127.509C106.989 127.83 107.479 128.198 107.834 128.614C108.189 129.021 108.384 129.364 108.419 129.641V127.327H109.485V138H108.419ZM99.904 132.67C99.904 133.632 100.112 134.46 100.528 135.153C100.944 135.846 101.481 136.375 102.14 136.739C102.799 137.103 103.488 137.285 104.207 137.285C105.004 137.285 105.715 137.099 106.339 136.726C106.963 136.353 107.457 135.82 107.821 135.127C108.185 134.434 108.367 133.615 108.367 132.67C108.367 131.725 108.185 130.906 107.821 130.213C107.457 129.52 106.963 128.987 106.339 128.614C105.715 128.233 105.004 128.042 104.207 128.042C103.488 128.042 102.799 128.228 102.14 128.601C101.481 128.965 100.944 129.494 100.528 130.187C100.112 130.88 99.904 131.708 99.904 132.67ZM113.185 138V127.327H114.277V138H113.185ZM113.757 122.66C113.488 122.66 113.258 122.569 113.068 122.387C112.886 122.196 112.795 121.967 112.795 121.698C112.795 121.429 112.89 121.204 113.081 121.022C113.271 120.831 113.497 120.736 113.757 120.736C113.93 120.736 114.09 120.779 114.238 120.866C114.394 120.953 114.515 121.07 114.602 121.217C114.697 121.356 114.744 121.516 114.744 121.698C114.744 121.967 114.645 122.196 114.446 122.387C114.255 122.569 114.025 122.66 113.757 122.66ZM123.273 127.015C123.932 127.015 124.578 127.158 125.21 127.444C125.843 127.73 126.363 128.185 126.77 128.809C127.178 129.433 127.381 130.243 127.381 131.24V138H126.263V131.539C126.263 130.274 125.969 129.372 125.379 128.835C124.79 128.289 124.045 128.016 123.143 128.016C122.537 128.016 121.952 128.194 121.388 128.549C120.834 128.896 120.374 129.372 120.01 129.979C119.646 130.577 119.464 131.249 119.464 131.994V138H118.372V127.327H119.464V129.459C119.516 129.147 119.72 128.8 120.075 128.419C120.431 128.038 120.886 127.708 121.44 127.431C122.004 127.154 122.615 127.015 123.273 127.015ZM139.599 138V135.686C139.547 135.92 139.347 136.249 139.001 136.674C138.654 137.099 138.173 137.48 137.558 137.818C136.942 138.147 136.21 138.312 135.361 138.312C134.407 138.312 133.523 138.095 132.709 137.662C131.894 137.22 131.235 136.579 130.733 135.738C130.239 134.889 129.992 133.866 129.992 132.67C129.992 131.474 130.239 130.456 130.733 129.615C131.235 128.766 131.894 128.12 132.709 127.678C133.523 127.236 134.407 127.015 135.361 127.015C136.201 127.015 136.929 127.18 137.545 127.509C138.169 127.83 138.658 128.198 139.014 128.614C139.369 129.021 139.564 129.364 139.599 129.641V127.327H140.665V138H139.599ZM131.084 132.67C131.084 133.632 131.292 134.46 131.708 135.153C132.124 135.846 132.661 136.375 133.32 136.739C133.978 137.103 134.667 137.285 135.387 137.285C136.184 137.285 136.895 137.099 137.519 136.726C138.143 136.353 138.637 135.82 139.001 135.127C139.365 134.434 139.547 133.615 139.547 132.67C139.547 131.725 139.365 130.906 139.001 130.213C138.637 129.52 138.143 128.987 137.519 128.614C136.895 128.233 136.184 128.042 135.387 128.042C134.667 128.042 133.978 128.228 133.32 128.601C132.661 128.965 132.124 129.494 131.708 130.187C131.292 130.88 131.084 131.708 131.084 132.67ZM144.013 138V120.112H145.131V129.641C145.175 129.346 145.383 128.995 145.755 128.588C146.128 128.172 146.635 127.808 147.276 127.496C147.926 127.175 148.68 127.015 149.538 127.015C150.492 127.015 151.358 127.236 152.138 127.678C152.918 128.12 153.538 128.766 153.997 129.615C154.465 130.456 154.699 131.474 154.699 132.67C154.699 133.866 154.465 134.889 153.997 135.738C153.538 136.579 152.918 137.22 152.138 137.662C151.358 138.095 150.492 138.312 149.538 138.312C148.68 138.312 147.926 138.152 147.276 137.831C146.626 137.502 146.111 137.129 145.729 136.713C145.348 136.297 145.136 135.955 145.092 135.686V138H144.013ZM153.594 132.67C153.594 131.708 153.399 130.88 153.009 130.187C152.628 129.494 152.125 128.965 151.501 128.601C150.886 128.228 150.219 128.042 149.499 128.042C148.711 128.042 147.983 128.233 147.315 128.614C146.657 128.987 146.128 129.52 145.729 130.213C145.331 130.906 145.131 131.725 145.131 132.67C145.131 133.615 145.331 134.434 145.729 135.127C146.128 135.82 146.657 136.353 147.315 136.726C147.983 137.099 148.711 137.285 149.499 137.285C150.219 137.285 150.886 137.103 151.501 136.739C152.125 136.375 152.628 135.846 153.009 135.153C153.399 134.46 153.594 133.632 153.594 132.67ZM158.3 138H157.182V120.112H158.3V138ZM162.34 132.683C162.34 133.489 162.492 134.247 162.795 134.958C163.098 135.669 163.562 136.245 164.186 136.687C164.81 137.12 165.594 137.337 166.539 137.337C167.302 137.337 167.93 137.211 168.424 136.96C168.927 136.709 169.321 136.41 169.607 136.063C169.902 135.716 170.11 135.413 170.231 135.153L171.05 135.829C170.721 136.366 170.344 136.821 169.919 137.194C169.494 137.567 169.005 137.844 168.45 138.026C167.895 138.217 167.237 138.312 166.474 138.312C165.356 138.312 164.403 138.052 163.614 137.532C162.834 137.012 162.24 136.314 161.833 135.439C161.434 134.564 161.235 133.593 161.235 132.527C161.235 131.487 161.434 130.551 161.833 129.719C162.24 128.887 162.83 128.228 163.601 127.743C164.381 127.258 165.321 127.015 166.422 127.015C167.393 127.015 168.242 127.24 168.97 127.691C169.698 128.133 170.261 128.744 170.66 129.524C171.067 130.295 171.271 131.184 171.271 132.189C171.271 132.267 171.267 132.354 171.258 132.449C171.249 132.536 171.245 132.614 171.245 132.683H162.34ZM170.127 131.695C170.11 131.175 169.984 130.629 169.75 130.057C169.525 129.476 169.143 128.987 168.606 128.588C168.077 128.189 167.349 127.99 166.422 127.99C165.443 127.99 164.667 128.185 164.095 128.575C163.532 128.956 163.12 129.437 162.86 130.018C162.609 130.59 162.457 131.149 162.405 131.695H170.127ZM179.154 127.327H181.624V124.155C181.624 123.037 181.788 122.166 182.118 121.542C182.447 120.909 182.863 120.463 183.366 120.203C183.868 119.934 184.38 119.8 184.9 119.8C185.515 119.8 185.992 119.891 186.33 120.073C186.676 120.246 186.876 120.35 186.928 120.385L186.434 121.295C186.382 121.252 186.226 121.161 185.966 121.022C185.714 120.875 185.35 120.801 184.874 120.801C184.527 120.801 184.185 120.888 183.847 121.061C183.517 121.234 183.24 121.572 183.015 122.075C182.798 122.578 182.69 123.336 182.69 124.35V127.327H185.992V128.354H182.69V138H181.624V128.354H179.154V127.327ZM189.309 133.008C189.309 134.317 189.599 135.357 190.18 136.128C190.769 136.891 191.649 137.272 192.819 137.272C193.989 137.272 194.864 136.891 195.445 136.128C196.034 135.357 196.329 134.317 196.329 133.008V127.327H197.421V133.242C197.421 134.213 197.239 135.084 196.875 135.855C196.52 136.618 196 137.22 195.315 137.662C194.639 138.095 193.807 138.312 192.819 138.312C191.84 138.312 191.008 138.095 190.323 137.662C189.638 137.22 189.114 136.618 188.75 135.855C188.395 135.084 188.217 134.213 188.217 133.242V127.327H189.309V133.008ZM199.941 127.327H202.229V122.946H203.308V127.327H206.298V128.367H203.308V135.218C203.308 135.981 203.447 136.514 203.724 136.817C204.01 137.12 204.352 137.272 204.751 137.272C205.141 137.272 205.431 137.207 205.622 137.077C205.821 136.938 205.938 136.847 205.973 136.804L206.558 137.675C206.506 137.718 206.398 137.792 206.233 137.896C206.077 138 205.865 138.095 205.596 138.182C205.336 138.269 205.011 138.312 204.621 138.312C203.954 138.312 203.386 138.091 202.918 137.649C202.459 137.207 202.229 136.492 202.229 135.504V128.367H199.941V127.327ZM209.875 133.008C209.875 134.317 210.166 135.357 210.746 136.128C211.336 136.891 212.215 137.272 213.385 137.272C214.555 137.272 215.431 136.891 216.011 136.128C216.601 135.357 216.895 134.317 216.895 133.008V127.327H217.987V133.242C217.987 134.213 217.805 135.084 217.441 135.855C217.086 136.618 216.566 137.22 215.881 137.662C215.205 138.095 214.373 138.312 213.385 138.312C212.406 138.312 211.574 138.095 210.889 137.662C210.205 137.22 209.68 136.618 209.316 135.855C208.961 135.084 208.783 134.213 208.783 133.242V127.327H209.875V133.008ZM222.767 138H221.701V127.327H222.767V129.303H222.702C222.737 129.069 222.893 128.774 223.17 128.419C223.447 128.055 223.829 127.73 224.314 127.444C224.808 127.158 225.38 127.015 226.03 127.015C226.533 127.015 226.957 127.08 227.304 127.21C227.659 127.331 227.902 127.453 228.032 127.574L227.538 128.523C227.417 128.419 227.2 128.315 226.888 128.211C226.585 128.098 226.216 128.042 225.783 128.042C225.185 128.042 224.656 128.254 224.197 128.679C223.746 129.095 223.395 129.593 223.144 130.174C222.893 130.755 222.767 131.283 222.767 131.76V138ZM229.854 132.683C229.854 133.489 230.005 134.247 230.309 134.958C230.612 135.669 231.076 136.245 231.7 136.687C232.324 137.12 233.108 137.337 234.053 137.337C234.815 137.337 235.444 137.211 235.938 136.96C236.44 136.709 236.835 136.41 237.121 136.063C237.415 135.716 237.623 135.413 237.745 135.153L238.564 135.829C238.234 136.366 237.857 136.821 237.433 137.194C237.008 137.567 236.518 137.844 235.964 138.026C235.409 138.217 234.75 138.312 233.988 138.312C232.87 138.312 231.916 138.052 231.128 137.532C230.348 137.012 229.754 136.314 229.347 135.439C228.948 134.564 228.749 133.593 228.749 132.527C228.749 131.487 228.948 130.551 229.347 129.719C229.754 128.887 230.343 128.228 231.115 127.743C231.895 127.258 232.835 127.015 233.936 127.015C234.906 127.015 235.756 127.24 236.484 127.691C237.212 128.133 237.775 128.744 238.174 129.524C238.581 130.295 238.785 131.184 238.785 132.189C238.785 132.267 238.78 132.354 238.772 132.449C238.763 132.536 238.759 132.614 238.759 132.683H229.854ZM237.641 131.695C237.623 131.175 237.498 130.629 237.264 130.057C237.038 129.476 236.657 128.987 236.12 128.588C235.591 128.189 234.863 127.99 233.936 127.99C232.956 127.99 232.181 128.185 231.609 128.575C231.045 128.956 230.634 129.437 230.374 130.018C230.122 130.59 229.971 131.149 229.919 131.695H237.641Z" fill="white"/>
<path d="M155.233 0.307639C157.436 0.307639 159.222 2.09819 159.222 4.30696V33.6353C159.222 35.8441 157.436 37.6346 155.233 37.6346C153.03 37.6346 151.245 35.8441 151.245 33.6353V4.30696C151.245 2.09819 153.03 0.307639 155.233 0.307639Z" fill="#FFCD1C"/>
<path d="M195.122 30.841C197.325 30.841 199.111 32.6315 199.111 34.8403V49.5045C199.111 51.7132 197.325 53.5038 195.122 53.5038C192.919 53.5038 191.133 51.7132 191.133 49.5045V34.8403C191.133 32.6315 192.919 30.841 195.122 30.841Z" fill="#00E55C"/>
<path d="M35.4587 0.190381C37.5574 -0.481128 39.8017 0.680307 40.4714 2.78452L55.0218 48.4981C55.6916 50.6024 54.5332 52.8525 52.4344 53.524C50.3357 54.1955 48.0914 53.0341 47.4217 50.9299L32.8713 5.21627C32.2015 3.11206 33.3599 0.861889 35.4587 0.190381Z" fill="#00E55C"/>
<path d="M120.28 15.2048C122.315 16.0492 123.283 18.3883 122.44 20.4293L109.871 50.8875C109.029 52.9285 106.696 53.8984 104.66 53.054C102.624 52.2095 101.657 49.8704 102.499 47.8294L115.069 17.3712C115.911 15.3302 118.244 14.3603 120.28 15.2048Z" fill="#00E55C"/>
<path d="M179.167 13.5107C190.182 13.5107 199.111 22.4634 199.111 33.5073C199.111 44.5511 190.182 53.5038 179.167 53.5038C168.152 53.5038 159.222 44.5511 159.222 33.5072C159.222 22.4634 168.152 13.5107 179.167 13.5107Z" fill="#04FF69"/>
<path d="M139.278 13.6386C150.293 13.6386 159.222 22.5915 159.222 33.6353C159.222 44.6791 150.293 53.6318 139.278 53.6318C128.263 53.6318 119.334 44.679 119.334 33.6352C119.334 22.5914 128.263 13.6386 139.278 13.6386Z" fill="#FFF624"/>
<path d="M139.278 21.6373C145.887 21.6373 151.245 27.009 151.245 33.6353C151.245 40.2616 145.887 45.6332 139.278 45.6332C132.669 45.6332 127.311 40.2615 127.311 33.6352C127.311 27.0089 132.669 21.6373 139.278 21.6373Z" fill="black"/>
<path d="M219.056 13.5107C230.071 13.5107 239 22.4634 239 33.5073C239 44.5511 230.071 53.5038 219.056 53.5038C208.041 53.5038 199.111 44.5511 199.111 33.5073C199.111 22.4634 208.041 13.5107 219.056 13.5107Z" fill="white"/>
<path d="M179.166 21.5093C185.775 21.5093 191.133 26.881 191.133 33.5072C191.133 40.1335 185.775 45.5052 179.166 45.5052C172.557 45.5052 167.2 40.1335 167.2 33.5072C167.2 26.881 172.557 21.5093 179.166 21.5093Z" fill="black"/>
<path d="M219.536 21.5664C226.162 21.5664 231.533 26.9516 231.533 33.5947C231.533 40.2377 226.162 45.623 219.536 45.623C212.91 45.6229 207.539 40.2377 207.539 33.5947C207.539 26.9516 212.91 21.5664 219.536 21.5664Z" fill="black"/>
<path d="M88.2139 16.0227C89.9295 14.6372 92.4406 14.9084 93.8225 16.6286L106.413 32.3C107.795 34.0202 107.524 36.5378 105.808 37.9234C104.093 39.3089 101.582 39.0377 100.2 37.3175L87.6096 21.646C86.2277 19.9259 86.4982 17.4082 88.2139 16.0227Z" fill="#4CFF94"/>
<path d="M4.98889 29.673C7.19189 29.673 8.97777 31.4636 8.97777 33.6723L8.97777 63.0007C8.97777 65.2094 7.19188 67 4.98888 67C2.78588 67 1 65.2094 1 63.0007L1 33.6723C1 31.4636 2.78589 29.673 4.98889 29.673Z" fill="#00E55C"/>
<path d="M20.9441 13.6758C31.9591 13.6758 40.8885 22.6285 40.8885 33.6724C40.8885 44.7162 31.9591 53.6689 20.9441 53.6689C9.92909 53.6689 1 44.7161 1 33.6723C1 22.6285 9.92909 13.6758 20.9441 13.6758Z" fill="white"/>
<path d="M20.9441 21.6744C27.5531 21.6744 32.9107 27.0461 32.9107 33.6723C32.9107 40.2986 27.5531 45.6703 20.9441 45.6703C14.3351 45.6703 8.97777 40.2986 8.97777 33.6723C8.97777 27.0461 14.3351 21.6744 20.9441 21.6744Z" fill="black"/>
<path d="M71.5984 21.6744C78.2074 21.6744 83.5651 27.0461 83.5651 33.6723C83.5651 40.2986 78.2074 45.6703 71.5984 45.6703C64.9894 45.6703 59.6318 40.2986 59.6318 33.6723C59.6318 27.0461 64.9894 21.6744 71.5984 21.6744Z" fill="black"/>
<path d="M87.6343 31.05C89.8373 31.05 91.6232 32.8405 91.6232 35.0493V49.7135C91.6232 51.9222 89.8373 53.7128 87.6343 53.7128C85.4313 53.7128 83.6455 51.9222 83.6455 49.7134L83.6455 35.0493C83.6455 32.8405 85.4313 31.05 87.6343 31.05Z" fill="#00E55C"/>
<path d="M71.5978 13.6758C82.6127 13.6758 91.5422 22.6285 91.5422 33.6724C91.5422 44.7162 82.6127 53.669 71.5978 53.669C60.5828 53.669 51.6533 44.7162 51.6533 33.6724C51.6533 22.6285 60.5828 13.6758 71.5978 13.6758Z" fill="white"/>
<path d="M71.6179 21.6946C78.2269 21.6946 83.5846 27.0663 83.5846 33.6926C83.5846 40.3189 78.2269 45.6905 71.6179 45.6905C65.0089 45.6905 59.6513 40.3189 59.6513 33.6926C59.6513 27.0663 65.0089 21.6946 71.6179 21.6946Z" fill="black"/>
</svg>
