<svg width="2727" height="1404" viewBox="0 0 2727 1404" fill="none" xmlns="http://www.w3.org/2000/svg">
<path d="M769.7 779V641.4H778.3V714.7C778.633 712.433 780.233 709.733 783.1 706.6C785.967 703.4 789.867 700.6 794.8 698.2C799.8 695.733 805.6 694.5 812.2 694.5C819.533 694.5 826.2 696.2 832.2 699.6C838.2 703 842.967 707.967 846.5 714.5C850.1 720.967 851.9 728.8 851.9 738C851.9 747.2 850.1 755.067 846.5 761.6C842.967 768.067 838.2 773 832.2 776.4C826.2 779.733 819.533 781.4 812.2 781.4C805.6 781.4 799.8 780.167 794.8 777.7C789.8 775.167 785.833 772.3 782.9 769.1C779.967 765.9 778.333 763.267 778 761.2V779H769.7ZM843.4 738C843.4 730.6 841.9 724.233 838.9 718.9C835.967 713.567 832.1 709.5 827.3 706.7C822.567 703.833 817.433 702.4 811.9 702.4C805.833 702.4 800.233 703.867 795.1 706.8C790.033 709.667 785.967 713.767 782.9 719.1C779.833 724.433 778.3 730.733 778.3 738C778.3 745.267 779.833 751.567 782.9 756.9C785.967 762.233 790.033 766.333 795.1 769.2C800.233 772.067 805.833 773.5 811.9 773.5C817.433 773.5 822.567 772.1 827.3 769.3C832.1 766.5 835.967 762.433 838.9 757.1C841.9 751.767 843.4 745.4 843.4 738ZM877.7 740.6C877.7 750.667 879.933 758.667 884.4 764.6C888.933 770.467 895.7 773.4 904.7 773.4C913.7 773.4 920.433 770.467 924.9 764.6C929.433 758.667 931.7 750.667 931.7 740.6V696.9H940.1V742.4C940.1 749.867 938.7 756.567 935.9 762.5C933.167 768.367 929.167 773 923.9 776.4C918.7 779.733 912.3 781.4 904.7 781.4C897.167 781.4 890.767 779.733 885.5 776.4C880.233 773 876.2 768.367 873.4 762.5C870.667 756.567 869.3 749.867 869.3 742.4V696.9H877.7V740.6ZM969.666 779V696.9H978.066V779H969.666ZM974.066 661C971.999 661 970.232 660.3 968.766 658.9C967.366 657.433 966.666 655.667 966.666 653.6C966.666 651.533 967.399 649.8 968.866 648.4C970.332 646.933 972.066 646.2 974.066 646.2C975.399 646.2 976.632 646.533 977.766 647.2C978.966 647.867 979.899 648.767 980.566 649.9C981.299 650.967 981.666 652.2 981.666 653.6C981.666 655.667 980.899 657.433 979.366 658.9C977.899 660.3 976.132 661 974.066 661ZM1018.27 779H1009.67V641.4H1018.27V779ZM1084.05 781.4C1076.72 781.4 1070.05 779.733 1064.05 776.4C1058.05 773 1053.25 768.067 1049.65 761.6C1046.12 755.067 1044.35 747.2 1044.35 738C1044.35 728.8 1046.12 720.967 1049.65 714.5C1053.25 707.967 1058.05 703 1064.05 699.6C1070.05 696.2 1076.72 694.5 1084.05 694.5C1090.58 694.5 1096.35 695.733 1101.35 698.2C1106.35 700.6 1110.28 703.4 1113.15 706.6C1116.08 709.733 1117.65 712.433 1117.85 714.7V641.4H1126.55V779H1118.15V761.2C1117.88 763.267 1116.28 765.9 1113.35 769.1C1110.42 772.3 1106.42 775.167 1101.35 777.7C1096.35 780.167 1090.58 781.4 1084.05 781.4ZM1084.25 773.5C1090.38 773.5 1095.98 772.067 1101.05 769.2C1106.18 766.333 1110.25 762.233 1113.25 756.9C1116.32 751.567 1117.85 745.267 1117.85 738C1117.85 730.733 1116.32 724.433 1113.25 719.1C1110.25 713.767 1106.18 709.667 1101.05 706.8C1095.98 703.867 1090.38 702.4 1084.25 702.4C1078.78 702.4 1073.65 703.833 1068.85 706.7C1064.05 709.5 1060.18 713.567 1057.25 718.9C1054.32 724.233 1052.85 730.6 1052.85 738C1052.85 745.4 1054.32 751.767 1057.25 757.1C1060.18 762.433 1064.05 766.5 1068.85 769.3C1073.65 772.1 1078.78 773.5 1084.25 773.5ZM1262.3 779V761.2C1261.9 763 1260.37 765.533 1257.7 768.8C1255.04 772.067 1251.34 775 1246.6 777.6C1241.87 780.133 1236.24 781.4 1229.7 781.4C1222.37 781.4 1215.57 779.733 1209.3 776.4C1203.04 773 1197.97 768.067 1194.1 761.6C1190.3 755.067 1188.4 747.2 1188.4 738C1188.4 728.8 1190.3 720.967 1194.1 714.5C1197.97 707.967 1203.04 703 1209.3 699.6C1215.57 696.2 1222.37 694.5 1229.7 694.5C1236.17 694.5 1241.77 695.767 1246.5 698.3C1251.3 700.767 1255.07 703.6 1257.8 706.8C1260.54 709.933 1262.04 712.567 1262.3 714.7V696.9H1270.5V779H1262.3ZM1196.8 738C1196.8 745.4 1198.4 751.767 1201.6 757.1C1204.8 762.433 1208.94 766.5 1214 769.3C1219.07 772.1 1224.37 773.5 1229.9 773.5C1236.04 773.5 1241.5 772.067 1246.3 769.2C1251.1 766.333 1254.9 762.233 1257.7 756.9C1260.5 751.567 1261.9 745.267 1261.9 738C1261.9 730.733 1260.5 724.433 1257.7 719.1C1254.9 713.767 1251.1 709.667 1246.3 706.8C1241.5 703.867 1236.04 702.4 1229.9 702.4C1224.37 702.4 1219.07 703.833 1214 706.7C1208.94 709.5 1204.8 713.567 1201.6 718.9C1198.4 724.233 1196.8 730.6 1196.8 738ZM1335.16 694.5C1340.23 694.5 1345.2 695.6 1350.06 697.8C1354.93 700 1358.93 703.5 1362.06 708.3C1365.2 713.1 1366.76 719.333 1366.76 727V779H1358.16V729.3C1358.16 719.567 1355.9 712.633 1351.36 708.5C1346.83 704.3 1341.1 702.2 1334.16 702.2C1329.5 702.2 1325 703.567 1320.66 706.3C1316.4 708.967 1312.86 712.633 1310.06 717.3C1307.26 721.9 1305.86 727.067 1305.86 732.8V779H1297.46V696.9H1305.86V713.3C1306.26 710.9 1307.83 708.233 1310.56 705.3C1313.3 702.367 1316.8 699.833 1321.06 697.7C1325.4 695.567 1330.1 694.5 1335.16 694.5ZM1430.14 781.4C1422.81 781.4 1416.14 779.733 1410.14 776.4C1404.14 773 1399.34 768.067 1395.74 761.6C1392.21 755.067 1390.44 747.2 1390.44 738C1390.44 728.8 1392.21 720.967 1395.74 714.5C1399.34 707.967 1404.14 703 1410.14 699.6C1416.14 696.2 1422.81 694.5 1430.14 694.5C1436.68 694.5 1442.44 695.733 1447.44 698.2C1452.44 700.6 1456.38 703.4 1459.24 706.6C1462.18 709.733 1463.74 712.433 1463.94 714.7V641.4H1472.64V779H1464.24V761.2C1463.98 763.267 1462.38 765.9 1459.44 769.1C1456.51 772.3 1452.51 775.167 1447.44 777.7C1442.44 780.167 1436.68 781.4 1430.14 781.4ZM1430.34 773.5C1436.48 773.5 1442.08 772.067 1447.14 769.2C1452.28 766.333 1456.34 762.233 1459.34 756.9C1462.41 751.567 1463.94 745.267 1463.94 738C1463.94 730.733 1462.41 724.433 1459.34 719.1C1456.34 713.767 1452.28 709.667 1447.14 706.8C1442.08 703.867 1436.48 702.4 1430.34 702.4C1424.88 702.4 1419.74 703.833 1414.94 706.7C1410.14 709.5 1406.28 713.567 1403.34 718.9C1400.41 724.233 1398.94 730.6 1398.94 738C1398.94 745.4 1400.41 751.767 1403.34 757.1C1406.28 762.433 1410.14 766.5 1414.94 769.3C1419.74 772.1 1424.88 773.5 1430.34 773.5ZM1577.8 781.4C1570.47 781.4 1563.8 779.733 1557.8 776.4C1551.8 773 1547 768.067 1543.4 761.6C1539.87 755.067 1538.1 747.2 1538.1 738C1538.1 728.8 1539.87 720.967 1543.4 714.5C1547 707.967 1551.8 703 1557.8 699.6C1563.8 696.2 1570.47 694.5 1577.8 694.5C1584.33 694.5 1590.1 695.733 1595.1 698.2C1600.1 700.6 1604.03 703.4 1606.9 706.6C1609.83 709.733 1611.4 712.433 1611.6 714.7V641.4H1620.3V779H1611.9V761.2C1611.63 763.267 1610.03 765.9 1607.1 769.1C1604.17 772.3 1600.17 775.167 1595.1 777.7C1590.1 780.167 1584.33 781.4 1577.8 781.4ZM1578 773.5C1584.13 773.5 1589.73 772.067 1594.8 769.2C1599.93 766.333 1604 762.233 1607 756.9C1610.07 751.567 1611.6 745.267 1611.6 738C1611.6 730.733 1610.07 724.433 1607 719.1C1604 713.767 1599.93 709.667 1594.8 706.8C1589.73 703.867 1584.13 702.4 1578 702.4C1572.53 702.4 1567.4 703.833 1562.6 706.7C1557.8 709.5 1553.93 713.567 1551 718.9C1548.07 724.233 1546.6 730.6 1546.6 738C1546.6 745.4 1548.07 751.767 1551 757.1C1553.93 762.433 1557.8 766.5 1562.6 769.3C1567.4 772.1 1572.53 773.5 1578 773.5ZM1643.1 738.1C1643.1 744.3 1644.27 750.133 1646.6 755.6C1648.93 761.067 1652.5 765.5 1657.3 768.9C1662.1 772.233 1668.13 773.9 1675.4 773.9C1681.27 773.9 1686.1 772.933 1689.9 771C1693.77 769.067 1696.8 766.767 1699 764.1C1701.27 761.433 1702.87 759.1 1703.8 757.1L1710.1 762.3C1707.57 766.433 1704.67 769.933 1701.4 772.8C1698.13 775.667 1694.37 777.8 1690.1 779.2C1685.83 780.667 1680.77 781.4 1674.9 781.4C1666.3 781.4 1658.97 779.4 1652.9 775.4C1646.9 771.4 1642.33 766.033 1639.2 759.3C1636.13 752.567 1634.6 745.1 1634.6 736.9C1634.6 728.9 1636.13 721.7 1639.2 715.3C1642.33 708.9 1646.87 703.833 1652.8 700.1C1658.8 696.367 1666.03 694.5 1674.5 694.5C1681.97 694.5 1688.5 696.233 1694.1 699.7C1699.7 703.1 1704.03 707.8 1707.1 713.8C1710.23 719.733 1711.8 726.567 1711.8 734.3C1711.8 734.9 1711.77 735.567 1711.7 736.3C1711.63 736.967 1711.6 737.567 1711.6 738.1H1643.1ZM1703 730.5C1702.87 726.5 1701.9 722.3 1700.1 717.9C1698.37 713.433 1695.43 709.667 1691.3 706.6C1687.23 703.533 1681.63 702 1674.5 702C1666.97 702 1661 703.5 1656.6 706.5C1652.27 709.433 1649.1 713.133 1647.1 717.6C1645.17 722 1644 726.3 1643.6 730.5H1703ZM1742.58 820.6H1734.08V696.9H1742.88V714.7C1743.14 712.433 1744.71 709.733 1747.58 706.6C1750.44 703.4 1754.34 700.6 1759.28 698.2C1764.28 695.733 1770.04 694.5 1776.58 694.5C1783.98 694.5 1790.68 696.2 1796.68 699.6C1802.68 703 1807.44 707.967 1810.98 714.5C1814.58 720.967 1816.38 728.8 1816.38 738C1816.38 747.2 1814.58 755.067 1810.98 761.6C1807.38 768.067 1802.58 773 1796.58 776.4C1790.58 779.733 1783.88 781.4 1776.48 781.4C1769.88 781.4 1764.08 780.133 1759.08 777.6C1754.08 775 1750.14 772.1 1747.28 768.9C1744.41 765.7 1742.84 763.133 1742.58 761.2V820.6ZM1807.98 738C1807.98 730.6 1806.48 724.233 1803.48 718.9C1800.54 713.567 1796.68 709.5 1791.88 706.7C1787.08 703.833 1781.91 702.4 1776.38 702.4C1770.24 702.4 1764.61 703.867 1759.48 706.8C1754.41 709.667 1750.38 713.767 1747.38 719.1C1744.38 724.433 1742.88 730.733 1742.88 738C1742.88 745.267 1744.38 751.567 1747.38 756.9C1750.38 762.233 1754.41 766.333 1759.48 769.2C1764.61 772.067 1770.24 773.5 1776.38 773.5C1781.91 773.5 1787.08 772.1 1791.88 769.3C1796.68 766.5 1800.54 762.433 1803.48 757.1C1806.48 751.767 1807.98 745.4 1807.98 738ZM1846.01 779H1837.41V641.4H1846.01V779ZM1910.18 781.4C1902.05 781.4 1894.85 779.467 1888.58 775.6C1882.38 771.733 1877.48 766.533 1873.88 760C1870.28 753.467 1868.48 746.2 1868.48 738.2C1868.48 730.2 1870.28 722.9 1873.88 716.3C1877.48 709.633 1882.38 704.333 1888.58 700.4C1894.85 696.467 1902.05 694.5 1910.18 694.5C1918.25 694.5 1925.38 696.467 1931.58 700.4C1937.85 704.333 1942.75 709.633 1946.28 716.3C1949.82 722.9 1951.58 730.2 1951.58 738.2C1951.58 746.2 1949.82 753.467 1946.28 760C1942.75 766.533 1937.85 771.733 1931.58 775.6C1925.38 779.467 1918.25 781.4 1910.18 781.4ZM1910.18 773.4C1916.78 773.4 1922.58 771.867 1927.58 768.8C1932.58 765.733 1936.45 761.533 1939.18 756.2C1941.92 750.867 1943.28 744.867 1943.28 738.2C1943.28 731.533 1941.92 725.5 1939.18 720.1C1936.45 714.7 1932.58 710.433 1927.58 707.3C1922.58 704.1 1916.78 702.5 1910.18 702.5C1903.52 702.5 1897.68 704.1 1892.68 707.3C1887.68 710.433 1883.78 714.7 1880.98 720.1C1878.18 725.5 1876.78 731.533 1876.78 738.2C1876.78 744.867 1878.18 750.867 1880.98 756.2C1883.78 761.533 1887.68 765.733 1892.68 768.8C1897.68 771.867 1903.52 773.4 1910.18 773.4ZM2002.13 770.4L2033.63 696.9H2042.53L1987.83 820.6H1978.93L1997.43 779L1963.83 696.9H1972.93L2002.13 770.4ZM804.7 957.5C810.833 957.5 815.733 956.567 819.4 954.7C823.133 952.767 825.4 951.467 826.2 950.8L831 957.6C830.533 958 829.067 958.833 826.6 960.1C824.2 961.367 821.033 962.567 817.1 963.7C813.233 964.833 808.833 965.4 803.9 965.4C797.767 965.4 791.7 963.8 785.7 960.6C779.7 957.4 774.7 952.567 770.7 946.1C766.767 939.633 764.8 931.567 764.8 921.9C764.8 912.167 766.767 904.1 770.7 897.7C774.7 891.3 779.7 886.5 785.7 883.3C791.7 880.1 797.767 878.5 803.9 878.5C808.833 878.5 813.167 879.133 816.9 880.4C820.633 881.6 823.667 882.933 826 884.4C828.333 885.867 829.767 886.9 830.3 887.5L825.7 894.4C825.1 893.8 823.933 892.867 822.2 891.6C820.467 890.267 818.133 889.067 815.2 888C812.333 886.933 808.833 886.4 804.7 886.4C799.7 886.4 794.767 887.767 789.9 890.5C785.033 893.233 781 897.233 777.8 902.5C774.667 907.767 773.1 914.233 773.1 921.9C773.1 929.567 774.667 936.067 777.8 941.4C781 946.667 785.033 950.667 789.9 953.4C794.767 956.133 799.7 957.5 804.7 957.5ZM886.745 965.4C878.612 965.4 871.412 963.467 865.145 959.6C858.945 955.733 854.045 950.533 850.445 944C846.845 937.467 845.045 930.2 845.045 922.2C845.045 914.2 846.845 906.9 850.445 900.3C854.045 893.633 858.945 888.333 865.145 884.4C871.412 880.467 878.612 878.5 886.745 878.5C894.812 878.5 901.945 880.467 908.145 884.4C914.412 888.333 919.312 893.633 922.845 900.3C926.379 906.9 928.145 914.2 928.145 922.2C928.145 930.2 926.379 937.467 922.845 944C919.312 950.533 914.412 955.733 908.145 959.6C901.945 963.467 894.812 965.4 886.745 965.4ZM886.745 957.4C893.345 957.4 899.145 955.867 904.145 952.8C909.145 949.733 913.012 945.533 915.745 940.2C918.479 934.867 919.845 928.867 919.845 922.2C919.845 915.533 918.479 909.5 915.745 904.1C913.012 898.7 909.145 894.433 904.145 891.3C899.145 888.1 893.345 886.5 886.745 886.5C880.079 886.5 874.245 888.1 869.245 891.3C864.245 894.433 860.345 898.7 857.545 904.1C854.745 909.5 853.345 915.533 853.345 922.2C853.345 928.867 854.745 934.867 857.545 940.2C860.345 945.533 864.245 949.733 869.245 952.8C874.245 955.867 880.079 957.4 886.745 957.4ZM988.288 878.5C993.354 878.5 998.321 879.6 1003.19 881.8C1008.05 884 1012.05 887.5 1015.19 892.3C1018.32 897.1 1019.89 903.333 1019.89 911V963H1011.29V913.3C1011.29 903.567 1009.02 896.633 1004.49 892.5C999.954 888.3 994.221 886.2 987.288 886.2C982.621 886.2 978.121 887.567 973.788 890.3C969.521 892.967 965.988 896.633 963.188 901.3C960.388 905.9 958.988 911.067 958.988 916.8V963H950.588V880.9H958.988V897.3C959.388 894.9 960.954 892.233 963.688 889.3C966.421 886.367 969.921 883.833 974.188 881.7C978.521 879.567 983.221 878.5 988.288 878.5ZM1039.37 880.9H1056.97V847.2H1065.27V880.9H1088.27V888.9H1065.27V941.6C1065.27 947.467 1066.33 951.567 1068.47 953.9C1070.67 956.233 1073.3 957.4 1076.37 957.4C1079.37 957.4 1081.6 956.9 1083.07 955.9C1084.6 954.833 1085.5 954.133 1085.77 953.8L1090.27 960.5C1089.87 960.833 1089.03 961.4 1087.77 962.2C1086.57 963 1084.93 963.733 1082.87 964.4C1080.87 965.067 1078.37 965.4 1075.37 965.4C1070.23 965.4 1065.87 963.7 1062.27 960.3C1058.73 956.9 1056.97 951.4 1056.97 943.8V888.9H1039.37V880.9ZM1117.69 963H1109.49V880.9H1117.69V896.1H1117.19C1117.45 894.3 1118.65 892.033 1120.79 889.3C1122.92 886.5 1125.85 884 1129.59 881.8C1133.39 879.6 1137.79 878.5 1142.79 878.5C1146.65 878.5 1149.92 879 1152.59 880C1155.32 880.933 1157.19 881.867 1158.19 882.8L1154.39 890.1C1153.45 889.3 1151.79 888.5 1149.39 887.7C1147.05 886.833 1144.22 886.4 1140.89 886.4C1136.29 886.4 1132.22 888.033 1128.69 891.3C1125.22 894.5 1122.52 898.333 1120.59 902.8C1118.65 907.267 1117.69 911.333 1117.69 915V963ZM1173.96 963V880.9H1182.36V963H1173.96ZM1178.36 845C1176.3 845 1174.53 844.3 1173.06 842.9C1171.66 841.433 1170.96 839.667 1170.96 837.6C1170.96 835.533 1171.7 833.8 1173.16 832.4C1174.63 830.933 1176.36 830.2 1178.36 830.2C1179.7 830.2 1180.93 830.533 1182.06 831.2C1183.26 831.867 1184.2 832.767 1184.86 833.9C1185.6 834.967 1185.96 836.2 1185.96 837.6C1185.96 839.667 1185.2 841.433 1183.66 842.9C1182.2 844.3 1180.43 845 1178.36 845ZM1212.67 963V825.4H1221.27V898.7C1221.6 896.433 1223.2 893.733 1226.07 890.6C1228.94 887.4 1232.84 884.6 1237.77 882.2C1242.77 879.733 1248.57 878.5 1255.17 878.5C1262.5 878.5 1269.17 880.2 1275.17 883.6C1281.17 887 1285.94 891.967 1289.47 898.5C1293.07 904.967 1294.87 912.8 1294.87 922C1294.87 931.2 1293.07 939.067 1289.47 945.6C1285.94 952.067 1281.17 957 1275.17 960.4C1269.17 963.733 1262.5 965.4 1255.17 965.4C1248.57 965.4 1242.77 964.167 1237.77 961.7C1232.77 959.167 1228.8 956.3 1225.87 953.1C1222.94 949.9 1221.3 947.267 1220.97 945.2V963H1212.67ZM1286.37 922C1286.37 914.6 1284.87 908.233 1281.87 902.9C1278.94 897.567 1275.07 893.5 1270.27 890.7C1265.54 887.833 1260.4 886.4 1254.87 886.4C1248.8 886.4 1243.2 887.867 1238.07 890.8C1233 893.667 1228.94 897.767 1225.87 903.1C1222.8 908.433 1221.27 914.733 1221.27 922C1221.27 929.267 1222.8 935.567 1225.87 940.9C1228.94 946.233 1233 950.333 1238.07 953.2C1243.2 956.067 1248.8 957.5 1254.87 957.5C1260.4 957.5 1265.54 956.1 1270.27 953.3C1275.07 950.5 1278.94 946.433 1281.87 941.1C1284.87 935.767 1286.37 929.4 1286.37 922ZM1320.67 924.6C1320.67 934.667 1322.9 942.667 1327.37 948.6C1331.9 954.467 1338.67 957.4 1347.67 957.4C1356.67 957.4 1363.4 954.467 1367.87 948.6C1372.4 942.667 1374.67 934.667 1374.67 924.6V880.9H1383.07V926.4C1383.07 933.867 1381.67 940.567 1378.87 946.5C1376.14 952.367 1372.14 957 1366.87 960.4C1361.67 963.733 1355.27 965.4 1347.67 965.4C1340.14 965.4 1333.74 963.733 1328.47 960.4C1323.2 957 1319.17 952.367 1316.37 946.5C1313.64 940.567 1312.27 933.867 1312.27 926.4V880.9H1320.67V924.6ZM1402.45 880.9H1420.05V847.2H1428.35V880.9H1451.35V888.9H1428.35V941.6C1428.35 947.467 1429.42 951.567 1431.55 953.9C1433.75 956.233 1436.39 957.4 1439.45 957.4C1442.45 957.4 1444.69 956.9 1446.15 955.9C1447.69 954.833 1448.59 954.133 1448.85 953.8L1453.35 960.5C1452.95 960.833 1452.12 961.4 1450.85 962.2C1449.65 963 1448.02 963.733 1445.95 964.4C1443.95 965.067 1441.45 965.4 1438.45 965.4C1433.32 965.4 1428.95 963.7 1425.35 960.3C1421.82 956.9 1420.05 951.4 1420.05 943.8V888.9H1402.45V880.9ZM1473.57 963V880.9H1481.97V963H1473.57ZM1477.97 845C1475.91 845 1474.14 844.3 1472.67 842.9C1471.27 841.433 1470.57 839.667 1470.57 837.6C1470.57 835.533 1471.31 833.8 1472.77 832.4C1474.24 830.933 1475.97 830.2 1477.97 830.2C1479.31 830.2 1480.54 830.533 1481.67 831.2C1482.87 831.867 1483.81 832.767 1484.47 833.9C1485.21 834.967 1485.57 836.2 1485.57 837.6C1485.57 839.667 1484.81 841.433 1483.27 842.9C1481.81 844.3 1480.04 845 1477.97 845ZM1547.88 965.4C1539.74 965.4 1532.54 963.467 1526.28 959.6C1520.08 955.733 1515.18 950.533 1511.58 944C1507.98 937.467 1506.18 930.2 1506.18 922.2C1506.18 914.2 1507.98 906.9 1511.58 900.3C1515.18 893.633 1520.08 888.333 1526.28 884.4C1532.54 880.467 1539.74 878.5 1547.88 878.5C1555.94 878.5 1563.08 880.467 1569.28 884.4C1575.54 888.333 1580.44 893.633 1583.98 900.3C1587.51 906.9 1589.28 914.2 1589.28 922.2C1589.28 930.2 1587.51 937.467 1583.98 944C1580.44 950.533 1575.54 955.733 1569.28 959.6C1563.08 963.467 1555.94 965.4 1547.88 965.4ZM1547.88 957.4C1554.48 957.4 1560.28 955.867 1565.28 952.8C1570.28 949.733 1574.14 945.533 1576.88 940.2C1579.61 934.867 1580.98 928.867 1580.98 922.2C1580.98 915.533 1579.61 909.5 1576.88 904.1C1574.14 898.7 1570.28 894.433 1565.28 891.3C1560.28 888.1 1554.48 886.5 1547.88 886.5C1541.21 886.5 1535.38 888.1 1530.38 891.3C1525.38 894.433 1521.48 898.7 1518.68 904.1C1515.88 909.5 1514.48 915.533 1514.48 922.2C1514.48 928.867 1515.88 934.867 1518.68 940.2C1521.48 945.533 1525.38 949.733 1530.38 952.8C1535.38 955.867 1541.21 957.4 1547.88 957.4ZM1649.42 878.5C1654.49 878.5 1659.45 879.6 1664.32 881.8C1669.19 884 1673.19 887.5 1676.32 892.3C1679.45 897.1 1681.02 903.333 1681.02 911V963H1672.42V913.3C1672.42 903.567 1670.15 896.633 1665.62 892.5C1661.09 888.3 1655.35 886.2 1648.42 886.2C1643.75 886.2 1639.25 887.567 1634.92 890.3C1630.65 892.967 1627.12 896.633 1624.32 901.3C1621.52 905.9 1620.12 911.067 1620.12 916.8V963H1611.72V880.9H1620.12V897.3C1620.52 894.9 1622.09 892.233 1624.82 889.3C1627.55 886.367 1631.05 883.833 1635.32 881.7C1639.65 879.567 1644.35 878.5 1649.42 878.5ZM1706.7 921.2V913.6H1758.2V921.2H1706.7ZM1787.63 963V880.9H1796.03V963H1787.63ZM1792.03 845C1789.97 845 1788.2 844.3 1786.73 842.9C1785.33 841.433 1784.63 839.667 1784.63 837.6C1784.63 835.533 1785.37 833.8 1786.83 832.4C1788.3 830.933 1790.03 830.2 1792.03 830.2C1793.37 830.2 1794.6 830.533 1795.73 831.2C1796.93 831.867 1797.87 832.767 1798.53 833.9C1799.27 834.967 1799.63 836.2 1799.63 837.6C1799.63 839.667 1798.87 841.433 1797.33 842.9C1795.87 844.3 1794.1 845 1792.03 845ZM1865.24 878.5C1870.31 878.5 1875.27 879.6 1880.14 881.8C1885.01 884 1889.01 887.5 1892.14 892.3C1895.27 897.1 1896.84 903.333 1896.84 911V963H1888.24V913.3C1888.24 903.567 1885.97 896.633 1881.44 892.5C1876.91 888.3 1871.17 886.2 1864.24 886.2C1859.57 886.2 1855.07 887.567 1850.74 890.3C1846.47 892.967 1842.94 896.633 1840.14 901.3C1837.34 905.9 1835.94 911.067 1835.94 916.8V963H1827.54V880.9H1835.94V897.3C1836.34 894.9 1837.91 892.233 1840.64 889.3C1843.37 886.367 1846.87 883.833 1851.14 881.7C1855.47 879.567 1860.17 878.5 1865.24 878.5ZM1958.02 957.5C1964.15 957.5 1969.05 956.567 1972.72 954.7C1976.45 952.767 1978.72 951.467 1979.52 950.8L1984.32 957.6C1983.85 958 1982.39 958.833 1979.92 960.1C1977.52 961.367 1974.35 962.567 1970.42 963.7C1966.55 964.833 1962.15 965.4 1957.22 965.4C1951.09 965.4 1945.02 963.8 1939.02 960.6C1933.02 957.4 1928.02 952.567 1924.02 946.1C1920.09 939.633 1918.12 931.567 1918.12 921.9C1918.12 912.167 1920.09 904.1 1924.02 897.7C1928.02 891.3 1933.02 886.5 1939.02 883.3C1945.02 880.1 1951.09 878.5 1957.22 878.5C1962.15 878.5 1966.49 879.133 1970.22 880.4C1973.95 881.6 1976.99 882.933 1979.32 884.4C1981.65 885.867 1983.09 886.9 1983.62 887.5L1979.02 894.4C1978.42 893.8 1977.25 892.867 1975.52 891.6C1973.79 890.267 1971.45 889.067 1968.52 888C1965.65 886.933 1962.15 886.4 1958.02 886.4C1953.02 886.4 1948.09 887.767 1943.22 890.5C1938.35 893.233 1934.32 897.233 1931.12 902.5C1927.99 907.767 1926.42 914.233 1926.42 921.9C1926.42 929.567 1927.99 936.067 1931.12 941.4C1934.32 946.667 1938.35 950.667 1943.22 953.4C1948.09 956.133 1953.02 957.5 1958.02 957.5ZM2006.97 922.1C2006.97 928.3 2008.13 934.133 2010.47 939.6C2012.8 945.067 2016.37 949.5 2021.17 952.9C2025.97 956.233 2032 957.9 2039.27 957.9C2045.13 957.9 2049.97 956.933 2053.77 955C2057.63 953.067 2060.67 950.767 2062.87 948.1C2065.13 945.433 2066.73 943.1 2067.67 941.1L2073.97 946.3C2071.43 950.433 2068.53 953.933 2065.27 956.8C2062 959.667 2058.23 961.8 2053.97 963.2C2049.7 964.667 2044.63 965.4 2038.77 965.4C2030.17 965.4 2022.83 963.4 2016.77 959.4C2010.77 955.4 2006.2 950.033 2003.07 943.3C2000 936.567 1998.47 929.1 1998.47 920.9C1998.47 912.9 2000 905.7 2003.07 899.3C2006.2 892.9 2010.73 887.833 2016.67 884.1C2022.67 880.367 2029.9 878.5 2038.37 878.5C2045.83 878.5 2052.37 880.233 2057.97 883.7C2063.57 887.1 2067.9 891.8 2070.97 897.8C2074.1 903.733 2075.67 910.567 2075.67 918.3C2075.67 918.9 2075.63 919.567 2075.57 920.3C2075.5 920.967 2075.47 921.567 2075.47 922.1H2006.97ZM2066.87 914.5C2066.73 910.5 2065.77 906.3 2063.97 901.9C2062.23 897.433 2059.3 893.667 2055.17 890.6C2051.1 887.533 2045.5 886 2038.37 886C2030.83 886 2024.87 887.5 2020.47 890.5C2016.13 893.433 2012.97 897.133 2010.97 901.6C2009.03 906 2007.87 910.3 2007.47 914.5H2066.87ZM2135.94 878.5C2141.01 878.5 2145.98 879.6 2150.84 881.8C2155.71 884 2159.71 887.5 2162.84 892.3C2165.98 897.1 2167.54 903.333 2167.54 911V963H2158.94V913.3C2158.94 903.567 2156.68 896.633 2152.14 892.5C2147.61 888.3 2141.88 886.2 2134.94 886.2C2130.28 886.2 2125.78 887.567 2121.44 890.3C2117.18 892.967 2113.64 896.633 2110.84 901.3C2108.04 905.9 2106.64 911.067 2106.64 916.8V963H2098.24V880.9H2106.64V897.3C2107.04 894.9 2108.61 892.233 2111.34 889.3C2114.08 886.367 2117.58 883.833 2121.84 881.7C2126.18 879.567 2130.88 878.5 2135.94 878.5ZM2187.02 880.9H2204.62V847.2H2212.92V880.9H2235.92V888.9H2212.92V941.6C2212.92 947.467 2213.99 951.567 2216.12 953.9C2218.32 956.233 2220.96 957.4 2224.02 957.4C2227.02 957.4 2229.26 956.9 2230.72 955.9C2232.26 954.833 2233.16 954.133 2233.42 953.8L2237.92 960.5C2237.52 960.833 2236.69 961.4 2235.42 962.2C2234.22 963 2232.59 963.733 2230.52 964.4C2228.52 965.067 2226.02 965.4 2223.02 965.4C2217.89 965.4 2213.52 963.7 2209.92 960.3C2206.39 956.9 2204.62 951.4 2204.62 943.8V888.9H2187.02V880.9ZM2258.14 963V880.9H2266.54V963H2258.14ZM2262.54 845C2260.48 845 2258.71 844.3 2257.24 842.9C2255.84 841.433 2255.14 839.667 2255.14 837.6C2255.14 835.533 2255.88 833.8 2257.34 832.4C2258.81 830.933 2260.54 830.2 2262.54 830.2C2263.88 830.2 2265.11 830.533 2266.24 831.2C2267.44 831.867 2268.38 832.767 2269.04 833.9C2269.78 834.967 2270.14 836.2 2270.14 837.6C2270.14 839.667 2269.38 841.433 2267.84 842.9C2266.38 844.3 2264.61 845 2262.54 845ZM2288.45 880.9H2297.45L2329.15 954.8L2360.75 880.9H2369.75L2334.15 963H2324.25L2288.45 880.9ZM2391.34 922.1C2391.34 928.3 2392.51 934.133 2394.84 939.6C2397.17 945.067 2400.74 949.5 2405.54 952.9C2410.34 956.233 2416.37 957.9 2423.64 957.9C2429.51 957.9 2434.34 956.933 2438.14 955C2442.01 953.067 2445.04 950.767 2447.24 948.1C2449.51 945.433 2451.11 943.1 2452.04 941.1L2458.34 946.3C2455.81 950.433 2452.91 953.933 2449.64 956.8C2446.37 959.667 2442.61 961.8 2438.34 963.2C2434.07 964.667 2429.01 965.4 2423.14 965.4C2414.54 965.4 2407.21 963.4 2401.14 959.4C2395.14 955.4 2390.57 950.033 2387.44 943.3C2384.37 936.567 2382.84 929.1 2382.84 920.9C2382.84 912.9 2384.37 905.7 2387.44 899.3C2390.57 892.9 2395.11 887.833 2401.04 884.1C2407.04 880.367 2414.27 878.5 2422.74 878.5C2430.21 878.5 2436.74 880.233 2442.34 883.7C2447.94 887.1 2452.27 891.8 2455.34 897.8C2458.47 903.733 2460.04 910.567 2460.04 918.3C2460.04 918.9 2460.01 919.567 2459.94 920.3C2459.87 920.967 2459.84 921.567 2459.84 922.1H2391.34ZM2451.24 914.5C2451.11 910.5 2450.14 906.3 2448.34 901.9C2446.61 897.433 2443.67 893.667 2439.54 890.6C2435.47 887.533 2429.87 886 2422.74 886C2415.21 886 2409.24 887.5 2404.84 890.5C2400.51 893.433 2397.34 897.133 2395.34 901.6C2393.41 906 2392.24 910.3 2391.84 914.5H2451.24ZM796.5 1062.5C800.1 1062.5 803.467 1062.93 806.6 1063.8C809.8 1064.6 812.633 1065.63 815.1 1066.9C817.567 1068.1 819.433 1069.23 820.7 1070.3L815.9 1076.6C814.5 1075.27 812.067 1073.83 808.6 1072.3C805.133 1070.77 801.2 1070 796.8 1070C791.133 1070 786.3 1071.2 782.3 1073.6C778.3 1076 776.3 1079.47 776.3 1084C776.3 1088.33 778.3 1091.8 782.3 1094.4C786.367 1097 791.6 1099.13 798 1100.8C802.867 1102 807.233 1103.53 811.1 1105.4C814.967 1107.2 818 1109.63 820.2 1112.7C822.467 1115.77 823.6 1119.8 823.6 1124.8C823.6 1129 822.767 1132.63 821.1 1135.7C819.433 1138.77 817.133 1141.3 814.2 1143.3C811.267 1145.3 807.9 1146.8 804.1 1147.8C800.3 1148.87 796.233 1149.4 791.9 1149.4C787.7 1149.4 783.767 1148.9 780.1 1147.9C776.433 1146.97 773.267 1145.8 770.6 1144.4C767.933 1142.93 765.867 1141.6 764.4 1140.4L769.4 1133.3C771.133 1135.17 774 1137.07 778 1139C782 1140.87 786.733 1141.8 792.2 1141.8C798.733 1141.8 804.133 1140.23 808.4 1137.1C812.667 1133.97 814.8 1129.9 814.8 1124.9C814.8 1121.1 813.767 1118.1 811.7 1115.9C809.7 1113.7 807.033 1111.93 803.7 1110.6C800.433 1109.27 796.967 1108.17 793.3 1107.3C789.767 1106.37 786.433 1105.3 783.3 1104.1C780.233 1102.83 777.533 1101.27 775.2 1099.4C772.867 1097.53 771.033 1095.33 769.7 1092.8C768.367 1090.2 767.7 1087.2 767.7 1083.8C767.7 1079.53 769 1075.83 771.6 1072.7C774.2 1069.5 777.7 1067 782.1 1065.2C786.5 1063.4 791.3 1062.5 796.5 1062.5ZM838.195 1064.9H855.795V1031.2H864.095V1064.9H887.095V1072.9H864.095V1125.6C864.095 1131.47 865.162 1135.57 867.295 1137.9C869.495 1140.23 872.129 1141.4 875.195 1141.4C878.195 1141.4 880.429 1140.9 881.895 1139.9C883.429 1138.83 884.329 1138.13 884.595 1137.8L889.095 1144.5C888.695 1144.83 887.862 1145.4 886.595 1146.2C885.395 1147 883.762 1147.73 881.695 1148.4C879.695 1149.07 877.195 1149.4 874.195 1149.4C869.062 1149.4 864.695 1147.7 861.095 1144.3C857.562 1140.9 855.795 1135.4 855.795 1127.8V1072.9H838.195V1064.9ZM916.514 1147H908.314V1064.9H916.514V1080.1H916.014C916.281 1078.3 917.481 1076.03 919.614 1073.3C921.747 1070.5 924.681 1068 928.414 1065.8C932.214 1063.6 936.614 1062.5 941.614 1062.5C945.481 1062.5 948.747 1063 951.414 1064C954.147 1064.93 956.014 1065.87 957.014 1066.8L953.214 1074.1C952.281 1073.3 950.614 1072.5 948.214 1071.7C945.881 1070.83 943.047 1070.4 939.714 1070.4C935.114 1070.4 931.047 1072.03 927.514 1075.3C924.047 1078.5 921.347 1082.33 919.414 1086.8C917.481 1091.27 916.514 1095.33 916.514 1099V1147ZM978.091 1108.6C978.091 1118.67 980.324 1126.67 984.791 1132.6C989.324 1138.47 996.091 1141.4 1005.09 1141.4C1014.09 1141.4 1020.82 1138.47 1025.29 1132.6C1029.82 1126.67 1032.09 1118.67 1032.09 1108.6V1064.9H1040.49V1110.4C1040.49 1117.87 1039.09 1124.57 1036.29 1130.5C1033.56 1136.37 1029.56 1141 1024.29 1144.4C1019.09 1147.73 1012.69 1149.4 1005.09 1149.4C997.557 1149.4 991.157 1147.73 985.891 1144.4C980.624 1141 976.591 1136.37 973.791 1130.5C971.057 1124.57 969.691 1117.87 969.691 1110.4V1064.9H978.091V1108.6ZM1102.36 1141.5C1108.49 1141.5 1113.39 1140.57 1117.06 1138.7C1120.79 1136.77 1123.06 1135.47 1123.86 1134.8L1128.66 1141.6C1128.19 1142 1126.72 1142.83 1124.26 1144.1C1121.86 1145.37 1118.69 1146.57 1114.76 1147.7C1110.89 1148.83 1106.49 1149.4 1101.56 1149.4C1095.42 1149.4 1089.36 1147.8 1083.36 1144.6C1077.36 1141.4 1072.36 1136.57 1068.36 1130.1C1064.42 1123.63 1062.46 1115.57 1062.46 1105.9C1062.46 1096.17 1064.42 1088.1 1068.36 1081.7C1072.36 1075.3 1077.36 1070.5 1083.36 1067.3C1089.36 1064.1 1095.42 1062.5 1101.56 1062.5C1106.49 1062.5 1110.82 1063.13 1114.56 1064.4C1118.29 1065.6 1121.32 1066.93 1123.66 1068.4C1125.99 1069.87 1127.42 1070.9 1127.96 1071.5L1123.36 1078.4C1122.76 1077.8 1121.59 1076.87 1119.86 1075.6C1118.12 1074.27 1115.79 1073.07 1112.86 1072C1109.99 1070.93 1106.49 1070.4 1102.36 1070.4C1097.36 1070.4 1092.42 1071.77 1087.56 1074.5C1082.69 1077.23 1078.66 1081.23 1075.46 1086.5C1072.32 1091.77 1070.76 1098.23 1070.76 1105.9C1070.76 1113.57 1072.32 1120.07 1075.46 1125.4C1078.66 1130.67 1082.69 1134.67 1087.56 1137.4C1092.42 1140.13 1097.36 1141.5 1102.36 1141.5ZM1141.32 1064.9H1158.92V1031.2H1167.22V1064.9H1190.22V1072.9H1167.22V1125.6C1167.22 1131.47 1168.29 1135.57 1170.42 1137.9C1172.62 1140.23 1175.25 1141.4 1178.32 1141.4C1181.32 1141.4 1183.55 1140.9 1185.02 1139.9C1186.55 1138.83 1187.45 1138.13 1187.72 1137.8L1192.22 1144.5C1191.82 1144.83 1190.99 1145.4 1189.72 1146.2C1188.52 1147 1186.89 1147.73 1184.82 1148.4C1182.82 1149.07 1180.32 1149.4 1177.32 1149.4C1172.19 1149.4 1167.82 1147.7 1164.22 1144.3C1160.69 1140.9 1158.92 1135.4 1158.92 1127.8V1072.9H1141.32V1064.9ZM1217.74 1108.6C1217.74 1118.67 1219.97 1126.67 1224.44 1132.6C1228.97 1138.47 1235.74 1141.4 1244.74 1141.4C1253.74 1141.4 1260.47 1138.47 1264.94 1132.6C1269.47 1126.67 1271.74 1118.67 1271.74 1108.6V1064.9H1280.14V1110.4C1280.14 1117.87 1278.74 1124.57 1275.94 1130.5C1273.21 1136.37 1269.21 1141 1263.94 1144.4C1258.74 1147.73 1252.34 1149.4 1244.74 1149.4C1237.21 1149.4 1230.81 1147.73 1225.54 1144.4C1220.27 1141 1216.24 1136.37 1213.44 1130.5C1210.71 1124.57 1209.34 1117.87 1209.34 1110.4V1064.9H1217.74V1108.6ZM1316.9 1147H1308.7V1064.9H1316.9V1080.1H1316.4C1316.67 1078.3 1317.87 1076.03 1320 1073.3C1322.14 1070.5 1325.07 1068 1328.8 1065.8C1332.6 1063.6 1337 1062.5 1342 1062.5C1345.87 1062.5 1349.14 1063 1351.8 1064C1354.54 1064.93 1356.4 1065.87 1357.4 1066.8L1353.6 1074.1C1352.67 1073.3 1351 1072.5 1348.6 1071.7C1346.27 1070.83 1343.44 1070.4 1340.1 1070.4C1335.5 1070.4 1331.44 1072.03 1327.9 1075.3C1324.44 1078.5 1321.74 1082.33 1319.8 1086.8C1317.87 1091.27 1316.9 1095.33 1316.9 1099V1147ZM1371.42 1106.1C1371.42 1112.3 1372.59 1118.13 1374.92 1123.6C1377.25 1129.07 1380.82 1133.5 1385.62 1136.9C1390.42 1140.23 1396.45 1141.9 1403.72 1141.9C1409.59 1141.9 1414.42 1140.93 1418.22 1139C1422.09 1137.07 1425.12 1134.77 1427.32 1132.1C1429.59 1129.43 1431.19 1127.1 1432.12 1125.1L1438.42 1130.3C1435.89 1134.43 1432.99 1137.93 1429.72 1140.8C1426.45 1143.67 1422.69 1145.8 1418.42 1147.2C1414.15 1148.67 1409.09 1149.4 1403.22 1149.4C1394.62 1149.4 1387.29 1147.4 1381.22 1143.4C1375.22 1139.4 1370.65 1134.03 1367.52 1127.3C1364.45 1120.57 1362.92 1113.1 1362.92 1104.9C1362.92 1096.9 1364.45 1089.7 1367.52 1083.3C1370.65 1076.9 1375.19 1071.83 1381.12 1068.1C1387.12 1064.37 1394.35 1062.5 1402.82 1062.5C1410.29 1062.5 1416.82 1064.23 1422.42 1067.7C1428.02 1071.1 1432.35 1075.8 1435.42 1081.8C1438.55 1087.73 1440.12 1094.57 1440.12 1102.3C1440.12 1102.9 1440.09 1103.57 1440.02 1104.3C1439.95 1104.97 1439.92 1105.57 1439.92 1106.1H1371.42ZM1431.32 1098.5C1431.19 1094.5 1430.22 1090.3 1428.42 1085.9C1426.69 1081.43 1423.75 1077.67 1419.62 1074.6C1415.55 1071.53 1409.95 1070 1402.82 1070C1395.29 1070 1389.32 1071.5 1384.92 1074.5C1380.59 1077.43 1377.42 1081.13 1375.42 1085.6C1373.49 1090 1372.32 1094.3 1371.92 1098.5H1431.32ZM1488.3 1062.5C1491.9 1062.5 1495.26 1062.93 1498.4 1063.8C1501.6 1064.6 1504.43 1065.63 1506.9 1066.9C1509.36 1068.1 1511.23 1069.23 1512.5 1070.3L1507.7 1076.6C1506.3 1075.27 1503.86 1073.83 1500.4 1072.3C1496.93 1070.77 1493 1070 1488.6 1070C1482.93 1070 1478.1 1071.2 1474.1 1073.6C1470.1 1076 1468.1 1079.47 1468.1 1084C1468.1 1088.33 1470.1 1091.8 1474.1 1094.4C1478.16 1097 1483.4 1099.13 1489.8 1100.8C1494.66 1102 1499.03 1103.53 1502.9 1105.4C1506.76 1107.2 1509.8 1109.63 1512 1112.7C1514.26 1115.77 1515.4 1119.8 1515.4 1124.8C1515.4 1129 1514.56 1132.63 1512.9 1135.7C1511.23 1138.77 1508.93 1141.3 1506 1143.3C1503.06 1145.3 1499.7 1146.8 1495.9 1147.8C1492.1 1148.87 1488.03 1149.4 1483.7 1149.4C1479.5 1149.4 1475.56 1148.9 1471.9 1147.9C1468.23 1146.97 1465.06 1145.8 1462.4 1144.4C1459.73 1142.93 1457.66 1141.6 1456.2 1140.4L1461.2 1133.3C1462.93 1135.17 1465.8 1137.07 1469.8 1139C1473.8 1140.87 1478.53 1141.8 1484 1141.8C1490.53 1141.8 1495.93 1140.23 1500.2 1137.1C1504.46 1133.97 1506.6 1129.9 1506.6 1124.9C1506.6 1121.1 1505.56 1118.1 1503.5 1115.9C1501.5 1113.7 1498.83 1111.93 1495.5 1110.6C1492.23 1109.27 1488.76 1108.17 1485.1 1107.3C1481.56 1106.37 1478.23 1105.3 1475.1 1104.1C1472.03 1102.83 1469.33 1101.27 1467 1099.4C1464.66 1097.53 1462.83 1095.33 1461.5 1092.8C1460.16 1090.2 1459.5 1087.2 1459.5 1083.8C1459.5 1079.53 1460.8 1075.83 1463.4 1072.7C1466 1069.5 1469.5 1067 1473.9 1065.2C1478.3 1063.4 1483.1 1062.5 1488.3 1062.5ZM1577.32 1064.9H1596.32V1040.5C1596.32 1031.9 1597.58 1025.2 1600.12 1020.4C1602.65 1015.53 1605.85 1012.1 1609.72 1010.1C1613.58 1008.03 1617.52 1007 1621.52 1007C1626.25 1007 1629.92 1007.7 1632.52 1009.1C1635.18 1010.43 1636.72 1011.23 1637.12 1011.5L1633.32 1018.5C1632.92 1018.17 1631.72 1017.47 1629.72 1016.4C1627.78 1015.27 1624.98 1014.7 1621.32 1014.7C1618.65 1014.7 1616.02 1015.37 1613.42 1016.7C1610.88 1018.03 1608.75 1020.63 1607.02 1024.5C1605.35 1028.37 1604.52 1034.2 1604.52 1042V1064.9H1629.92V1072.8H1604.52V1147H1596.32V1072.8H1577.32V1064.9ZM1683.03 1149.4C1674.9 1149.4 1667.7 1147.47 1661.43 1143.6C1655.23 1139.73 1650.33 1134.53 1646.73 1128C1643.13 1121.47 1641.33 1114.2 1641.33 1106.2C1641.33 1098.2 1643.13 1090.9 1646.73 1084.3C1650.33 1077.63 1655.23 1072.33 1661.43 1068.4C1667.7 1064.47 1674.9 1062.5 1683.03 1062.5C1691.1 1062.5 1698.23 1064.47 1704.43 1068.4C1710.7 1072.33 1715.6 1077.63 1719.13 1084.3C1722.67 1090.9 1724.43 1098.2 1724.43 1106.2C1724.43 1114.2 1722.67 1121.47 1719.13 1128C1715.6 1134.53 1710.7 1139.73 1704.43 1143.6C1698.23 1147.47 1691.1 1149.4 1683.03 1149.4ZM1683.03 1141.4C1689.63 1141.4 1695.43 1139.87 1700.43 1136.8C1705.43 1133.73 1709.3 1129.53 1712.03 1124.2C1714.77 1118.87 1716.13 1112.87 1716.13 1106.2C1716.13 1099.53 1714.77 1093.5 1712.03 1088.1C1709.3 1082.7 1705.43 1078.43 1700.43 1075.3C1695.43 1072.1 1689.63 1070.5 1683.03 1070.5C1676.37 1070.5 1670.53 1072.1 1665.53 1075.3C1660.53 1078.43 1656.63 1082.7 1653.83 1088.1C1651.03 1093.5 1649.63 1099.53 1649.63 1106.2C1649.63 1112.87 1651.03 1118.87 1653.83 1124.2C1656.63 1129.53 1660.53 1133.73 1665.53 1136.8C1670.53 1139.87 1676.37 1141.4 1683.03 1141.4ZM1755.58 1147H1747.38V1064.9H1755.58V1080.1H1755.08C1755.34 1078.3 1756.54 1076.03 1758.68 1073.3C1760.81 1070.5 1763.74 1068 1767.48 1065.8C1771.28 1063.6 1775.68 1062.5 1780.68 1062.5C1784.54 1062.5 1787.81 1063 1790.48 1064C1793.21 1064.93 1795.08 1065.87 1796.08 1066.8L1792.28 1074.1C1791.34 1073.3 1789.68 1072.5 1787.28 1071.7C1784.94 1070.83 1782.11 1070.4 1778.78 1070.4C1774.18 1070.4 1770.11 1072.03 1766.58 1075.3C1763.11 1078.5 1760.41 1082.33 1758.48 1086.8C1756.54 1091.27 1755.58 1095.33 1755.58 1099V1147ZM1886.11 1138.4L1917.61 1064.9H1926.51L1871.81 1188.6H1862.91L1881.41 1147L1847.81 1064.9H1856.91L1886.11 1138.4ZM1977.57 1149.4C1969.43 1149.4 1962.23 1147.47 1955.97 1143.6C1949.77 1139.73 1944.87 1134.53 1941.27 1128C1937.67 1121.47 1935.87 1114.2 1935.87 1106.2C1935.87 1098.2 1937.67 1090.9 1941.27 1084.3C1944.87 1077.63 1949.77 1072.33 1955.97 1068.4C1962.23 1064.47 1969.43 1062.5 1977.57 1062.5C1985.63 1062.5 1992.77 1064.47 1998.97 1068.4C2005.23 1072.33 2010.13 1077.63 2013.67 1084.3C2017.2 1090.9 2018.97 1098.2 2018.97 1106.2C2018.97 1114.2 2017.2 1121.47 2013.67 1128C2010.13 1134.53 2005.23 1139.73 1998.97 1143.6C1992.77 1147.47 1985.63 1149.4 1977.57 1149.4ZM1977.57 1141.4C1984.17 1141.4 1989.97 1139.87 1994.97 1136.8C1999.97 1133.73 2003.83 1129.53 2006.57 1124.2C2009.3 1118.87 2010.67 1112.87 2010.67 1106.2C2010.67 1099.53 2009.3 1093.5 2006.57 1088.1C2003.83 1082.7 1999.97 1078.43 1994.97 1075.3C1989.97 1072.1 1984.17 1070.5 1977.57 1070.5C1970.9 1070.5 1965.07 1072.1 1960.07 1075.3C1955.07 1078.43 1951.17 1082.7 1948.37 1088.1C1945.57 1093.5 1944.17 1099.53 1944.17 1106.2C1944.17 1112.87 1945.57 1118.87 1948.37 1124.2C1951.17 1129.53 1955.07 1133.73 1960.07 1136.8C1965.07 1139.87 1970.9 1141.4 1977.57 1141.4ZM2048.21 1108.6C2048.21 1118.67 2050.44 1126.67 2054.91 1132.6C2059.44 1138.47 2066.21 1141.4 2075.21 1141.4C2084.21 1141.4 2090.94 1138.47 2095.41 1132.6C2099.94 1126.67 2102.21 1118.67 2102.21 1108.6V1064.9H2110.61V1110.4C2110.61 1117.87 2109.21 1124.57 2106.41 1130.5C2103.67 1136.37 2099.67 1141 2094.41 1144.4C2089.21 1147.73 2082.81 1149.4 2075.21 1149.4C2067.67 1149.4 2061.27 1147.73 2056.01 1144.4C2050.74 1141 2046.71 1136.37 2043.91 1130.5C2041.17 1124.57 2039.81 1117.87 2039.81 1110.4V1064.9H2048.21V1108.6ZM2147.37 1147H2139.17V1064.9H2147.37V1080.1H2146.87C2147.14 1078.3 2148.34 1076.03 2150.47 1073.3C2152.61 1070.5 2155.54 1068 2159.27 1065.8C2163.07 1063.6 2167.47 1062.5 2172.47 1062.5C2176.34 1062.5 2179.61 1063 2182.27 1064C2185.01 1064.93 2186.87 1065.87 2187.87 1066.8L2184.07 1074.1C2183.14 1073.3 2181.47 1072.5 2179.07 1071.7C2176.74 1070.83 2173.91 1070.4 2170.57 1070.4C2165.97 1070.4 2161.91 1072.03 2158.37 1075.3C2154.91 1078.5 2152.21 1082.33 2150.27 1086.8C2148.34 1091.27 2147.37 1095.33 2147.37 1099V1147ZM805.3 1333.4C797.167 1333.4 789.967 1331.47 783.7 1327.6C777.5 1323.73 772.6 1318.53 769 1312C765.4 1305.47 763.6 1298.2 763.6 1290.2C763.6 1282.2 765.4 1274.9 769 1268.3C772.6 1261.63 777.5 1256.33 783.7 1252.4C789.967 1248.47 797.167 1246.5 805.3 1246.5C813.367 1246.5 820.5 1248.47 826.7 1252.4C832.967 1256.33 837.867 1261.63 841.4 1268.3C844.933 1274.9 846.7 1282.2 846.7 1290.2C846.7 1298.2 844.933 1305.47 841.4 1312C837.867 1318.53 832.967 1323.73 826.7 1327.6C820.5 1331.47 813.367 1333.4 805.3 1333.4ZM805.3 1325.4C811.9 1325.4 817.7 1323.87 822.7 1320.8C827.7 1317.73 831.567 1313.53 834.3 1308.2C837.033 1302.87 838.4 1296.87 838.4 1290.2C838.4 1283.53 837.033 1277.5 834.3 1272.1C831.567 1266.7 827.7 1262.43 822.7 1259.3C817.7 1256.1 811.9 1254.5 805.3 1254.5C798.633 1254.5 792.8 1256.1 787.8 1259.3C782.8 1262.43 778.9 1266.7 776.1 1272.1C773.3 1277.5 771.9 1283.53 771.9 1290.2C771.9 1296.87 773.3 1302.87 776.1 1308.2C778.9 1313.53 782.8 1317.73 787.8 1320.8C792.8 1323.87 798.633 1325.4 805.3 1325.4ZM877.842 1331H869.642V1248.9H877.842V1264.1H877.342C877.609 1262.3 878.809 1260.03 880.942 1257.3C883.076 1254.5 886.009 1252 889.742 1249.8C893.542 1247.6 897.942 1246.5 902.942 1246.5C906.809 1246.5 910.076 1247 912.742 1248C915.476 1248.93 917.342 1249.87 918.342 1250.8L914.542 1258.1C913.609 1257.3 911.942 1256.5 909.542 1255.7C907.209 1254.83 904.376 1254.4 901.042 1254.4C896.442 1254.4 892.376 1256.03 888.842 1259.3C885.376 1262.5 882.676 1266.33 880.742 1270.8C878.809 1275.27 877.842 1279.33 877.842 1283V1331ZM966.852 1374.8C959.852 1374.8 953.885 1374.03 948.952 1372.5C944.018 1370.97 939.918 1368.97 936.652 1366.5C933.452 1364.1 931.018 1361.6 929.352 1359L936.352 1353.3C937.418 1354.97 939.018 1356.87 941.152 1359C943.285 1361.13 946.352 1362.97 950.352 1364.5C954.418 1366.1 959.885 1366.9 966.752 1366.9C973.552 1366.9 979.252 1365.3 983.852 1362.1C988.518 1358.97 992.018 1354.8 994.352 1349.6C996.685 1344.4 997.852 1338.77 997.852 1332.7V1329.6H1006.05V1333.4C1006.05 1342.33 1004.28 1349.87 1000.75 1356C997.218 1362.2 992.485 1366.87 986.552 1370C980.685 1373.2 974.118 1374.8 966.852 1374.8ZM997.852 1331V1313.2C997.452 1315 995.918 1317.53 993.252 1320.8C990.585 1324.07 986.885 1327 982.152 1329.6C977.418 1332.13 971.785 1333.4 965.252 1333.4C957.918 1333.4 951.118 1331.73 944.852 1328.4C938.585 1325 933.518 1320.07 929.652 1313.6C925.852 1307.07 923.952 1299.2 923.952 1290C923.952 1280.8 925.852 1272.97 929.652 1266.5C933.518 1259.97 938.585 1255 944.852 1251.6C951.118 1248.2 957.918 1246.5 965.252 1246.5C971.718 1246.5 977.318 1247.77 982.052 1250.3C986.852 1252.77 990.618 1255.6 993.352 1258.8C996.085 1261.93 997.585 1264.57 997.852 1266.7V1248.9H1006.05V1331H997.852ZM932.352 1290C932.352 1297.4 933.952 1303.77 937.152 1309.1C940.352 1314.43 944.485 1318.5 949.552 1321.3C954.618 1324.1 959.918 1325.5 965.452 1325.5C971.585 1325.5 977.052 1324.07 981.852 1321.2C986.652 1318.33 990.452 1314.23 993.252 1308.9C996.052 1303.57 997.452 1297.27 997.452 1290C997.452 1282.73 996.052 1276.43 993.252 1271.1C990.452 1265.77 986.652 1261.67 981.852 1258.8C977.052 1255.87 971.585 1254.4 965.452 1254.4C959.918 1254.4 954.618 1255.83 949.552 1258.7C944.485 1261.5 940.352 1265.57 937.152 1270.9C933.952 1276.23 932.352 1282.6 932.352 1290ZM1100.59 1331V1313.2C1100.19 1315 1098.65 1317.53 1095.99 1320.8C1093.32 1324.07 1089.62 1327 1084.89 1329.6C1080.15 1332.13 1074.52 1333.4 1067.99 1333.4C1060.65 1333.4 1053.85 1331.73 1047.59 1328.4C1041.32 1325 1036.25 1320.07 1032.39 1313.6C1028.59 1307.07 1026.69 1299.2 1026.69 1290C1026.69 1280.8 1028.59 1272.97 1032.39 1266.5C1036.25 1259.97 1041.32 1255 1047.59 1251.6C1053.85 1248.2 1060.65 1246.5 1067.99 1246.5C1074.45 1246.5 1080.05 1247.77 1084.79 1250.3C1089.59 1252.77 1093.35 1255.6 1096.09 1258.8C1098.82 1261.93 1100.32 1264.57 1100.59 1266.7V1248.9H1108.79V1331H1100.59ZM1035.09 1290C1035.09 1297.4 1036.69 1303.77 1039.89 1309.1C1043.09 1314.43 1047.22 1318.5 1052.29 1321.3C1057.35 1324.1 1062.65 1325.5 1068.19 1325.5C1074.32 1325.5 1079.79 1324.07 1084.59 1321.2C1089.39 1318.33 1093.19 1314.23 1095.99 1308.9C1098.79 1303.57 1100.19 1297.27 1100.19 1290C1100.19 1282.73 1098.79 1276.43 1095.99 1271.1C1093.19 1265.77 1089.39 1261.67 1084.59 1258.8C1079.79 1255.87 1074.32 1254.4 1068.19 1254.4C1062.65 1254.4 1057.35 1255.83 1052.29 1258.7C1047.22 1261.5 1043.09 1265.57 1039.89 1270.9C1036.69 1276.23 1035.09 1282.6 1035.09 1290ZM1173.44 1246.5C1178.51 1246.5 1183.48 1247.6 1188.34 1249.8C1193.21 1252 1197.21 1255.5 1200.34 1260.3C1203.48 1265.1 1205.04 1271.33 1205.04 1279V1331H1196.44V1281.3C1196.44 1271.57 1194.18 1264.63 1189.64 1260.5C1185.11 1256.3 1179.38 1254.2 1172.44 1254.2C1167.78 1254.2 1163.28 1255.57 1158.94 1258.3C1154.68 1260.97 1151.14 1264.63 1148.34 1269.3C1145.54 1273.9 1144.14 1279.07 1144.14 1284.8V1331H1135.74V1248.9H1144.14V1265.3C1144.54 1262.9 1146.11 1260.23 1148.84 1257.3C1151.58 1254.37 1155.08 1251.83 1159.34 1249.7C1163.68 1247.57 1168.38 1246.5 1173.44 1246.5ZM1233.92 1331V1248.9H1242.32V1331H1233.92ZM1238.32 1213C1236.26 1213 1234.49 1212.3 1233.02 1210.9C1231.62 1209.43 1230.92 1207.67 1230.92 1205.6C1230.92 1203.53 1231.66 1201.8 1233.12 1200.4C1234.59 1198.93 1236.32 1198.2 1238.32 1198.2C1239.66 1198.2 1240.89 1198.53 1242.02 1199.2C1243.22 1199.87 1244.16 1200.77 1244.82 1201.9C1245.56 1202.97 1245.92 1204.2 1245.92 1205.6C1245.92 1207.67 1245.16 1209.43 1243.62 1210.9C1242.16 1212.3 1240.39 1213 1238.32 1213ZM1269.03 1248.9H1333.93L1279.23 1323.4H1332.63V1331H1264.13L1318.83 1256.5H1269.03V1248.9ZM1420.7 1331V1313.2C1420.3 1315 1418.77 1317.53 1416.1 1320.8C1413.44 1324.07 1409.74 1327 1405 1329.6C1400.27 1332.13 1394.64 1333.4 1388.1 1333.4C1380.77 1333.4 1373.97 1331.73 1367.7 1328.4C1361.44 1325 1356.37 1320.07 1352.5 1313.6C1348.7 1307.07 1346.8 1299.2 1346.8 1290C1346.8 1280.8 1348.7 1272.97 1352.5 1266.5C1356.37 1259.97 1361.44 1255 1367.7 1251.6C1373.97 1248.2 1380.77 1246.5 1388.1 1246.5C1394.57 1246.5 1400.17 1247.77 1404.9 1250.3C1409.7 1252.77 1413.47 1255.6 1416.2 1258.8C1418.94 1261.93 1420.44 1264.57 1420.7 1266.7V1248.9H1428.9V1331H1420.7ZM1355.2 1290C1355.2 1297.4 1356.8 1303.77 1360 1309.1C1363.2 1314.43 1367.34 1318.5 1372.4 1321.3C1377.47 1324.1 1382.77 1325.5 1388.3 1325.5C1394.44 1325.5 1399.9 1324.07 1404.7 1321.2C1409.5 1318.33 1413.3 1314.23 1416.1 1308.9C1418.9 1303.57 1420.3 1297.27 1420.3 1290C1420.3 1282.73 1418.9 1276.43 1416.1 1271.1C1413.3 1265.77 1409.5 1261.67 1404.7 1258.8C1399.9 1255.87 1394.44 1254.4 1388.3 1254.4C1382.77 1254.4 1377.47 1255.83 1372.4 1258.7C1367.34 1261.5 1363.2 1265.57 1360 1270.9C1356.8 1276.23 1355.2 1282.6 1355.2 1290ZM1447.96 1248.9H1465.56V1215.2H1473.86V1248.9H1496.86V1256.9H1473.86V1309.6C1473.86 1315.47 1474.93 1319.57 1477.06 1321.9C1479.26 1324.23 1481.89 1325.4 1484.96 1325.4C1487.96 1325.4 1490.19 1324.9 1491.66 1323.9C1493.19 1322.83 1494.09 1322.13 1494.36 1321.8L1498.86 1328.5C1498.46 1328.83 1497.63 1329.4 1496.36 1330.2C1495.16 1331 1493.53 1331.73 1491.46 1332.4C1489.46 1333.07 1486.96 1333.4 1483.96 1333.4C1478.83 1333.4 1474.46 1331.7 1470.86 1328.3C1467.33 1324.9 1465.56 1319.4 1465.56 1311.8V1256.9H1447.96V1248.9ZM1519.08 1331V1248.9H1527.48V1331H1519.08ZM1523.48 1213C1521.41 1213 1519.65 1212.3 1518.18 1210.9C1516.78 1209.43 1516.08 1207.67 1516.08 1205.6C1516.08 1203.53 1516.81 1201.8 1518.28 1200.4C1519.75 1198.93 1521.48 1198.2 1523.48 1198.2C1524.81 1198.2 1526.05 1198.53 1527.18 1199.2C1528.38 1199.87 1529.31 1200.77 1529.98 1201.9C1530.71 1202.97 1531.08 1204.2 1531.08 1205.6C1531.08 1207.67 1530.31 1209.43 1528.78 1210.9C1527.31 1212.3 1525.55 1213 1523.48 1213ZM1593.39 1333.4C1585.25 1333.4 1578.05 1331.47 1571.79 1327.6C1565.59 1323.73 1560.69 1318.53 1557.09 1312C1553.49 1305.47 1551.69 1298.2 1551.69 1290.2C1551.69 1282.2 1553.49 1274.9 1557.09 1268.3C1560.69 1261.63 1565.59 1256.33 1571.79 1252.4C1578.05 1248.47 1585.25 1246.5 1593.39 1246.5C1601.45 1246.5 1608.59 1248.47 1614.79 1252.4C1621.05 1256.33 1625.95 1261.63 1629.49 1268.3C1633.02 1274.9 1634.79 1282.2 1634.79 1290.2C1634.79 1298.2 1633.02 1305.47 1629.49 1312C1625.95 1318.53 1621.05 1323.73 1614.79 1327.6C1608.59 1331.47 1601.45 1333.4 1593.39 1333.4ZM1593.39 1325.4C1599.99 1325.4 1605.79 1323.87 1610.79 1320.8C1615.79 1317.73 1619.65 1313.53 1622.39 1308.2C1625.12 1302.87 1626.49 1296.87 1626.49 1290.2C1626.49 1283.53 1625.12 1277.5 1622.39 1272.1C1619.65 1266.7 1615.79 1262.43 1610.79 1259.3C1605.79 1256.1 1599.99 1254.5 1593.39 1254.5C1586.72 1254.5 1580.89 1256.1 1575.89 1259.3C1570.89 1262.43 1566.99 1266.7 1564.19 1272.1C1561.39 1277.5 1559.99 1283.53 1559.99 1290.2C1559.99 1296.87 1561.39 1302.87 1564.19 1308.2C1566.99 1313.53 1570.89 1317.73 1575.89 1320.8C1580.89 1323.87 1586.72 1325.4 1593.39 1325.4ZM1694.93 1246.5C1699.99 1246.5 1704.96 1247.6 1709.83 1249.8C1714.69 1252 1718.69 1255.5 1721.83 1260.3C1724.96 1265.1 1726.53 1271.33 1726.53 1279V1331H1717.93V1281.3C1717.93 1271.57 1715.66 1264.63 1711.13 1260.5C1706.59 1256.3 1700.86 1254.2 1693.93 1254.2C1689.26 1254.2 1684.76 1255.57 1680.43 1258.3C1676.16 1260.97 1672.63 1264.63 1669.83 1269.3C1667.03 1273.9 1665.63 1279.07 1665.63 1284.8V1331H1657.23V1248.9H1665.63V1265.3C1666.03 1262.9 1667.59 1260.23 1670.33 1257.3C1673.06 1254.37 1676.56 1251.83 1680.83 1249.7C1685.16 1247.57 1689.86 1246.5 1694.93 1246.5Z" fill="white"/>
<path d="M580.571 273.526C580.571 197.994 505.037 136.763 580.569 136.763H2540.63C2643.14 136.763 2726.23 219.862 2726.23 322.369C2726.23 424.877 2643.14 507.976 2540.63 507.976H580.569C505.037 507.976 580.571 446.745 580.571 371.213V273.526Z" fill="black"/>
<path d="M727.102 322.369C727.102 289.999 753.344 263.757 785.715 263.757C818.086 263.757 844.327 289.999 844.327 322.369V566.589C844.327 598.96 818.086 625.201 785.715 625.201C753.344 625.201 727.102 598.96 727.102 566.589V322.369Z" fill="black"/>
<path d="M1000.02 136.763C990.05 105.964 1006.94 72.9182 1037.74 62.9528C1068.54 52.9874 1101.58 69.8762 1111.55 100.675L1186.73 333.034C1196.7 363.832 1179.81 396.878 1149.01 406.844C1118.21 416.809 1085.16 399.92 1075.2 369.121L1000.02 136.763Z" fill="black"/>
<path d="M1935.64 58.5884C1935.64 26.2309 1963.09 0 1996.95 0C2030.8 0 2058.25 26.2309 2058.25 58.5884V302.707C2058.25 335.064 2030.8 361.295 1996.95 361.295C1963.09 361.295 1935.64 335.064 1935.64 302.707V58.5884Z" fill="black"/>
<rect x="2241.26" y="224.682" width="195.375" height="195.375" rx="10" transform="rotate(90 2241.26 224.682)" fill="black"/>
<rect x="2092.52" y="214.955" width="18" height="18" rx="9" transform="rotate(90 2092.52 214.955)" fill="black"/>
<path d="M1997.24 29.3086C2013.39 29.3086 2026.51 42.3964 2026.51 58.541V312.603C2026.51 328.788 2013.39 341.909 1997.2 341.909C1981.02 341.909 1967.9 328.788 1967.9 312.603V58.6149C1967.9 42.4295 1981.06 29.3086 1997.24 29.3086Z" fill="#00E55C"/>
<path d="M1870.21 166.071C1956.53 166.071 2026.51 236.049 2026.51 322.372C2026.51 408.694 1956.53 478.672 1870.21 478.672C1783.89 478.672 1713.91 408.694 1713.91 322.372C1713.91 236.049 1783.89 166.071 1870.21 166.071Z" fill="white"/>
<path d="M1870.21 231.736C1920.27 231.736 1960.86 272.322 1960.86 322.386C1960.86 372.451 1920.27 413.036 1870.21 413.036C1820.15 413.036 1779.56 372.451 1779.56 322.386C1779.56 272.322 1820.15 231.736 1870.21 231.736Z" fill="black"/>
<path d="M2329.41 293.078C2345.55 293.078 2358.68 306.166 2358.68 322.31V449.378C2358.68 465.564 2345.55 478.685 2329.37 478.685C2313.18 478.685 2300.06 465.564 2300.06 449.378V322.384C2300.06 306.199 2313.22 293.078 2329.41 293.078Z" fill="#00E55C"/>
<path d="M2202.38 166.084C2288.7 166.084 2358.68 236.062 2358.68 322.384C2358.68 408.707 2288.7 478.685 2202.38 478.685C2116.05 478.685 2046.07 408.707 2046.07 322.384C2046.07 236.062 2116.05 166.084 2202.38 166.084Z" fill="white"/>
<path d="M2202.38 231.734C2252.44 231.734 2293.03 272.32 2293.03 322.384C2293.03 372.449 2252.44 413.034 2202.38 413.034C2152.31 413.034 2111.73 372.449 2111.73 322.384C2111.73 272.32 2152.31 231.734 2202.38 231.734Z" fill="black"/>
<path d="M2534.54 166.07C2620.86 166.07 2690.84 236.048 2690.84 322.371C2690.84 408.693 2620.86 478.671 2534.54 478.671C2448.22 478.671 2378.24 408.693 2378.24 322.371C2378.24 236.048 2448.22 166.07 2534.54 166.07Z" fill="#00E55C"/>
<path d="M2534.54 231.734C2584.61 231.734 2625.19 272.32 2625.19 322.384C2625.19 372.449 2584.61 413.034 2534.54 413.034C2484.48 413.034 2443.89 372.449 2443.89 322.384C2443.89 272.32 2484.48 231.734 2534.54 231.734Z" fill="black"/>
<path d="M1732.09 177.781C1744.93 187.639 1747.35 206.037 1737.49 218.874L1553.32 467.727C1543.46 480.564 1525.06 482.978 1512.22 473.12L1511.43 472.51C1498.59 462.651 1496.18 444.253 1506.04 431.417L1690.21 182.564C1700.07 169.727 1718.46 167.313 1731.3 177.171L1732.09 177.781Z" fill="white"/>
<path d="M787.231 598.252C771.062 598.252 757.917 585.171 757.917 569.034L757.917 334.623C757.917 318.446 771.058 305.331 787.268 305.331C803.478 305.331 816.619 318.446 816.619 334.623V568.96C816.619 585.138 803.441 598.252 787.231 598.252Z" fill="white"/>
<path d="M914.454 481.084C828.001 481.084 757.917 411.14 757.917 324.859C757.917 238.579 828.001 168.635 914.454 168.635C1000.91 168.635 1070.99 238.579 1070.99 324.859C1070.99 411.14 1000.91 481.084 914.454 481.084Z" fill="white"/>
<path d="M914.834 234.145C964.897 234.145 1005.48 274.728 1005.48 324.791C1005.48 374.853 964.897 415.437 914.834 415.437C864.772 415.437 824.188 374.853 824.188 324.791C824.188 274.728 864.772 234.145 914.834 234.145Z" fill="black"/>
<path d="M1048.71 89.2982C1064.14 84.357 1080.65 92.8401 1085.6 108.246L1193.74 444.981C1198.69 460.387 1190.2 476.881 1174.77 481.822C1159.35 486.764 1142.83 478.28 1137.88 462.875L1029.74 126.14C1024.79 110.734 1033.29 94.2395 1048.71 89.2982Z" fill="white"/>
<path d="M1459.83 295.293C1476.01 295.293 1489.13 308.414 1489.13 324.599V451.593C1489.13 467.779 1476.01 480.9 1459.83 480.9C1443.64 480.9 1430.52 467.779 1430.52 451.593V324.599C1430.52 308.414 1443.64 295.293 1459.83 295.293Z" fill="white"/>
<path d="M1332.83 168.299C1419.15 168.299 1489.13 238.277 1489.13 324.599C1489.13 410.921 1419.15 480.9 1332.83 480.9C1246.51 480.9 1176.53 410.921 1176.53 324.599C1176.53 238.277 1246.51 168.299 1332.83 168.299Z" fill="white"/>
<path d="M1332.83 231.736C1382.9 231.736 1423.48 272.322 1423.48 322.386C1423.48 372.451 1382.9 413.036 1332.83 413.036C1282.77 413.036 1242.18 372.451 1242.18 322.386C1242.18 272.322 1282.77 231.736 1332.83 231.736Z" fill="black"/>
<path d="M1465.05 175.704C1478.02 166.023 1496.38 168.69 1506.06 181.661L1580.68 281.858C1590.36 294.829 1587.69 313.192 1574.72 322.873L1573.92 323.472C1560.95 333.153 1542.59 330.486 1532.91 317.515L1458.29 217.318C1448.61 204.347 1451.28 185.984 1464.25 176.303L1465.05 175.704Z" fill="white"/>
<g filter="url(#filter0_i_326_91)">
<path d="M532.171 478.925C651.207 410.11 651.207 238.071 532.171 169.256L341.831 59.2197C222.795 -9.59564 74 76.4236 74 214.054V434.126C74 571.757 222.795 657.776 341.831 588.961L532.171 478.925Z" fill="url(#paint0_radial_326_91)"/>
</g>
<g filter="url(#filter1_d_326_91)">
<path d="M206 381.094C206 452.507 283.191 497.139 344.943 461.433L443.686 404.339C505.438 368.633 505.438 279.367 443.686 243.661L344.943 186.567C283.191 150.861 206 195.493 206 266.906L206 381.094Z" fill="black"/>
</g>
<path d="M292.762 597.808C409.912 665.533 556.349 580.877 556.349 445.427C556.349 445.427 541.842 375.542 541.842 340.343C541.842 305.144 556.349 228.842 556.349 228.842C556.349 93.3929 409.912 8.73684 292.762 76.4616C292.762 76.4616 243.042 111.55 207.889 137.949C172.736 164.348 105.439 184.754 105.439 184.754C-11.7109 252.479 -11.711 421.791 105.439 489.516C105.439 489.516 181.524 511.938 207.889 525.137C234.253 538.337 292.762 597.808 292.762 597.808Z" fill="white"/>
<path fill-rule="evenodd" clip-rule="evenodd" d="M283.974 61.22C412.841 -13.2788 573.925 79.8448 573.925 228.842V230.503L573.578 232.33L573.461 232.951L573.011 235.379C572.621 237.498 572.062 240.573 571.39 244.378C570.046 251.994 568.255 262.502 566.466 274.083C562.821 297.678 559.419 324.284 559.419 340.343C559.419 356.32 562.8 381.279 566.435 403.202C568.218 413.958 570.004 423.644 571.344 430.643C572.014 434.139 572.571 436.957 572.958 438.893L573.406 441.109L573.522 441.672L573.556 441.84L573.925 443.617V445.427C573.925 594.425 412.841 687.548 283.974 613.049L281.912 611.857L280.241 610.159L280.094 610.011L279.624 609.535C279.205 609.113 278.581 608.485 277.774 607.677C276.159 606.062 273.813 603.729 270.911 600.884C265.101 595.188 257.1 587.474 248.309 579.372C239.494 571.248 230.016 562.856 221.231 555.754C212.173 548.431 204.812 543.274 200.028 540.879C188.238 534.976 163.934 526.458 141.349 519.116C130.314 515.528 120.081 512.344 112.603 510.056C108.866 508.913 105.824 507.996 103.72 507.365L101.301 506.643L100.486 506.402L98.4656 505.806L96.6506 504.757C-32.2169 430.258 -32.2168 244.011 96.6506 169.512L98.4054 168.498L100.341 167.911L100.481 167.868L100.992 167.71C101.452 167.567 102.149 167.348 103.059 167.058C104.879 166.477 107.545 165.609 110.866 164.483C117.516 162.228 126.742 158.953 137.018 154.885C157.993 146.58 181.752 135.578 197.343 123.869C215.074 110.554 236.415 95.0935 253.27 82.9999C261.708 76.9448 269.045 71.7176 274.273 68.0033C276.887 66.1459 278.975 64.6663 280.41 63.65L282.626 62.0833L283.286 61.6177L283.974 61.22ZM302.226 91.3145L300.703 92.3917C299.283 93.3974 297.211 94.8653 294.615 96.7099C289.422 100.4 282.131 105.594 273.746 111.611C256.952 123.661 235.856 138.945 218.435 152.028C198.872 166.719 171.407 179.12 149.945 187.617C139.002 191.95 129.207 195.427 122.141 197.823C118.603 199.022 115.737 199.955 113.74 200.593C113.312 200.73 112.923 200.853 112.577 200.962C9.37665 262.199 9.34516 411.96 112.482 473.251L113.799 473.644C115.959 474.291 119.067 475.229 122.875 476.394C130.487 478.723 140.923 481.969 152.205 485.637C174.254 492.806 201.174 502.099 215.749 509.396C224.148 513.601 233.987 520.827 243.314 528.367C252.915 536.129 263.007 545.079 272.115 553.473C281.247 561.889 289.52 569.867 295.505 575.734C298.501 578.671 300.931 581.088 302.619 582.776C302.956 583.113 303.263 583.421 303.539 583.698C408.13 642.278 537.53 567.286 538.763 447.158L538.492 445.817C538.087 443.794 537.511 440.877 536.82 437.272C535.44 430.067 533.6 420.083 531.756 408.967C528.138 387.148 524.266 359.565 524.266 340.343C524.266 321.203 528.118 292.059 531.726 268.703C533.563 256.809 535.399 246.042 536.774 238.251C537.462 234.352 538.036 231.192 538.44 229L538.765 227.25C537.625 106.538 407.084 31.3415 302.226 91.3145Z" fill="black"/>
<path d="M197.353 396.397C197.353 465.246 271.788 508.277 331.335 473.853L426.552 418.807C486.099 384.383 486.099 298.321 426.552 263.896L331.335 208.851C271.788 174.427 197.353 217.457 197.353 286.307L197.353 396.397Z" fill="black"/>
<defs>
<filter id="filter0_i_326_91" x="74" y="35" width="547.448" height="578.182" filterUnits="userSpaceOnUse" color-interpolation-filters="sRGB">
<feFlood flood-opacity="0" result="BackgroundImageFix"/>
<feBlend mode="normal" in="SourceGraphic" in2="BackgroundImageFix" result="shape"/>
<feColorMatrix in="SourceAlpha" type="matrix" values="0 0 0 0 0 0 0 0 0 0 0 0 0 0 0 0 0 0 127 0" result="hardAlpha"/>
<feOffset/>
<feGaussianBlur stdDeviation="11.5"/>
<feComposite in2="hardAlpha" operator="arithmetic" k2="-1" k3="1"/>
<feColorMatrix type="matrix" values="0 0 0 0 0 0 0 0 0 1 0 0 0 0 0.64 0 0 0 0.61 0"/>
<feBlend mode="normal" in2="shape" result="effect1_innerShadow_326_91"/>
</filter>
<filter id="filter1_d_326_91" x="113" y="81" width="470" height="486" filterUnits="userSpaceOnUse" color-interpolation-filters="sRGB">
<feFlood flood-opacity="0" result="BackgroundImageFix"/>
<feColorMatrix in="SourceAlpha" type="matrix" values="0 0 0 0 0 0 0 0 0 0 0 0 0 0 0 0 0 0 127 0" result="hardAlpha"/>
<feOffset/>
<feGaussianBlur stdDeviation="46.5"/>
<feComposite in2="hardAlpha" operator="out"/>
<feColorMatrix type="matrix" values="0 0 0 0 1 0 0 0 0 1 0 0 0 0 1 0 0 0 1 0"/>
<feBlend mode="normal" in2="BackgroundImageFix" result="effect1_dropShadow_326_91"/>
<feBlend mode="normal" in="SourceGraphic" in2="effect1_dropShadow_326_91" result="shape"/>
</filter>
<radialGradient id="paint0_radial_326_91" cx="0" cy="0" r="1" gradientUnits="userSpaceOnUse" gradientTransform="translate(314.948 323.594) rotate(88.5169) scale(309.104 292.673)">
<stop stop-color="#E500DC"/>
<stop offset="0.777333" stop-color="#0075FF"/>
<stop offset="1" stop-color="#00BCE5"/>
</radialGradient>
</defs>
</svg>
