<svg width="1933" height="569" viewBox="0 0 1933 569" fill="none" xmlns="http://www.w3.org/2000/svg">
<path d="M1239.32 0C1255.47 1.13329e-06 1268.59 13.0878 1268.59 29.2324V283.294C1268.59 299.48 1255.47 312.601 1239.29 312.601C1223.1 312.601 1209.98 299.48 1209.98 283.294V29.3063C1209.98 13.1209 1223.14 -1.13616e-06 1239.32 0Z" fill="#00E55C"/>
<path d="M1112.29 136.763C1198.62 136.763 1268.59 206.741 1268.59 293.063C1268.59 379.385 1198.62 449.364 1112.29 449.364C1025.97 449.364 955.993 379.385 955.993 293.063C955.993 206.741 1025.97 136.763 1112.29 136.763Z" fill="white"/>
<path d="M1112.29 202.428C1162.36 202.428 1202.94 243.013 1202.94 293.078C1202.94 343.142 1162.36 383.727 1112.29 383.727C1062.23 383.727 1021.64 343.142 1021.64 293.078C1021.64 243.013 1062.23 202.428 1112.29 202.428Z" fill="black"/>
<path d="M1571.49 263.771C1587.63 263.771 1600.76 276.859 1600.76 293.004V420.072C1600.76 436.257 1587.64 449.378 1571.45 449.378C1555.27 449.378 1542.15 436.257 1542.15 420.072V293.078C1542.15 276.892 1555.3 263.771 1571.49 263.771Z" fill="#00E55C"/>
<path d="M1444.46 136.777C1530.78 136.777 1600.76 206.755 1600.76 293.078C1600.76 379.4 1530.78 449.378 1444.46 449.378C1358.14 449.378 1288.16 379.4 1288.16 293.078C1288.16 206.755 1358.14 136.777 1444.46 136.777Z" fill="white"/>
<path d="M1444.46 202.426C1494.52 202.426 1535.11 243.011 1535.11 293.076C1535.11 343.14 1494.52 383.725 1444.46 383.725C1394.39 383.725 1353.81 343.14 1353.81 293.076C1353.81 243.011 1394.39 202.426 1444.46 202.426Z" fill="black"/>
<path d="M1776.62 136.762C1862.95 136.762 1932.92 206.74 1932.92 293.062C1932.92 379.384 1862.95 449.362 1776.62 449.362C1690.3 449.362 1620.32 379.384 1620.32 293.062C1620.32 206.74 1690.3 136.762 1776.62 136.762Z" fill="#00E55C"/>
<path d="M1776.62 202.426C1826.69 202.426 1867.27 243.011 1867.27 293.076C1867.27 343.14 1826.69 383.725 1776.62 383.725C1726.56 383.725 1685.97 343.14 1685.97 293.076C1685.97 243.011 1726.56 202.426 1776.62 202.426Z" fill="black"/>
<path d="M974.177 148.474C987.014 158.333 989.428 176.731 979.57 189.567L795.4 438.42C785.542 451.257 767.144 453.671 754.307 443.813L753.514 443.203C740.677 433.345 738.263 414.947 748.121 402.11L932.29 153.257C942.149 140.42 960.547 138.006 973.384 147.865L974.177 148.474Z" fill="white"/>
<path d="M29.3134 568.943C13.1445 568.943 -4.40105e-07 555.862 0 539.725L6.39318e-06 305.315C6.83439e-06 289.137 13.1407 276.023 29.3505 276.023C45.5604 276.023 58.701 289.137 58.701 305.315V539.651C58.701 555.829 45.5233 568.943 29.3134 568.943Z" fill="white"/>
<path d="M156.536 451.775C70.0836 451.775 2.26657e-06 381.831 6.04553e-06 295.551C9.82449e-06 209.27 70.0836 139.326 156.536 139.326C242.989 139.326 313.072 209.27 313.072 295.551C313.072 381.831 242.989 451.775 156.536 451.775Z" fill="white"/>
<path d="M156.917 204.836C206.979 204.836 247.563 245.42 247.563 295.482C247.563 345.545 206.979 386.128 156.917 386.128C106.854 386.128 66.2705 345.545 66.2705 295.482C66.2705 245.42 106.854 204.836 156.917 204.836Z" fill="black"/>
<path d="M290.796 59.9896C306.221 55.0484 322.736 63.5315 327.684 78.9373L435.825 415.672C440.773 431.078 432.279 447.572 416.854 452.514C401.428 457.455 384.913 448.972 379.966 433.566L271.824 96.8312C266.877 81.4254 275.371 64.9309 290.796 59.9896Z" fill="white"/>
<path d="M701.91 265.984C718.095 265.984 731.216 279.105 731.216 295.291V422.285C731.216 438.47 718.095 451.591 701.91 451.591C685.724 451.591 672.603 438.47 672.603 422.285V295.291C672.603 279.105 685.724 265.984 701.91 265.984Z" fill="white"/>
<path d="M574.916 138.99C661.238 138.99 731.216 208.968 731.216 295.291C731.216 381.613 661.238 451.591 574.916 451.591C488.593 451.591 418.615 381.613 418.615 295.291C418.615 208.968 488.593 138.99 574.916 138.99Z" fill="white"/>
<path d="M574.915 202.428C624.98 202.428 665.565 243.013 665.565 293.078C665.565 343.142 624.98 383.727 574.915 383.727C524.851 383.727 484.266 343.142 484.266 293.078C484.266 243.013 524.851 202.428 574.915 202.428Z" fill="black"/>
<path d="M707.131 146.398C720.102 136.716 738.465 139.383 748.146 152.354L822.762 252.552C832.443 265.523 829.776 283.886 816.805 293.567L816.003 294.165C803.032 303.847 784.669 301.18 774.988 288.209L700.372 188.011C690.691 175.04 693.358 156.677 706.329 146.996L707.131 146.398Z" fill="white"/>
</svg>
