<?xml version="1.0" standalone="no"?>
<!DOCTYPE svg PUBLIC "-//W3C//DTD SVG 20010904//EN"
 "http://www.w3.org/TR/2001/REC-SVG-20010904/DTD/svg10.dtd">
<svg version="1.0" xmlns="http://www.w3.org/2000/svg"
 width="879.000000pt" height="879.000000pt" viewBox="0 0 879.000000 879.000000"
 preserveAspectRatio="xMidYMid meet">
<metadata>
Created by potrace 1.14, written by Peter Selinger 2001-2017
</metadata>
<g transform="translate(0.000000,879.000000) scale(0.100000,-0.100000)"
fill="#000000" stroke="none">
<path d="M5208 8665 c-2 -1 -39 -5 -83 -9 -44 -3 -91 -8 -105 -10 -14 -3 -38
-7 -55 -9 -112 -17 -205 -39 -365 -84 -76 -21 -272 -96 -344 -131 -59 -29 -60
-29 -125 -15 -36 8 -84 16 -105 19 -22 3 -42 7 -46 9 -3 2 -50 7 -105 11 -672
53 -1312 -150 -1830 -580 -59 -49 -246 -234 -296 -292 -42 -49 -143 -185 -186
-249 -105 -159 -221 -398 -269 -556 -16 -52 -21 -58 -89 -102 -169 -108 -405
-315 -537 -472 -18 -21 -40 -46 -48 -55 -52 -55 -193 -257 -255 -365 -158
-275 -293 -659 -331 -940 -3 -27 -8 -59 -10 -70 -26 -135 -26 -575 0 -725 3
-14 7 -47 11 -74 42 -333 211 -769 419 -1080 167 -248 383 -478 621 -659 65
-49 93 -69 153 -107 51 -32 75 -55 85 -80 143 -333 230 -485 392 -688 75 -93
255 -278 329 -337 27 -22 63 -52 80 -66 53 -44 187 -134 288 -193 231 -135
506 -240 763 -290 17 -4 41 -9 55 -11 203 -41 520 -50 730 -21 14 2 50 7 80
11 30 4 60 8 65 8 6 0 62 -25 125 -55 236 -114 495 -195 750 -234 146 -22 240
-28 415 -28 229 0 349 12 555 55 225 47 428 118 655 230 287 142 500 294 725
519 281 280 474 573 616 935 64 164 132 417 149 553 4 26 8 58 11 72 3 24 13
131 18 198 2 31 21 58 141 195 67 78 201 289 269 424 107 215 204 520 232 728
3 28 8 59 10 70 9 47 18 209 18 325 0 119 -12 319 -19 330 -2 4 -6 26 -9 51
-26 210 -111 478 -226 714 -105 216 -222 389 -381 568 -33 36 -38 49 -44 111
-11 120 -31 237 -70 407 -11 52 -73 238 -106 322 -94 238 -256 518 -404 696
-489 592 -1156 948 -1910 1020 -75 8 -400 12 -407 6z"/>
</g>
</svg>
